<svg width="1920" height="745" viewBox="0 0 1920 745" fill="none" xmlns="http://www.w3.org/2000/svg">
<mask id="mask0_100_422" style="mask-type:luminance" maskUnits="userSpaceOnUse" x="0" y="0" width="1920" height="1120">
<path d="M1920 0H0V1119.74H1920V0Z" fill="white"/>
</mask>
<g mask="url(#mask0_100_422)">
<path d="M1920 0H0V1119.74H1920V0Z" fill="url(#paint0_linear_100_422)"/>
</g>
<path d="M973.329 1119.74H972.581C1089.54 591.694 1030.5 384.947 876.679 349.72C702.219 309.768 405.787 490.198 105.946 672.702C70.6126 694.207 35.2335 715.74 5.06057e-06 736.947V736.093C35.1076 714.962 70.3588 693.507 105.566 672.078C405.535 489.495 702.091 308.989 876.842 349.008C1031.07 384.327 1090.35 591.284 973.329 1119.74ZM975.963 1119.74H975.218C976.621 1113.23 978.013 1106.75 979.466 1100.15H979.463C1093.14 576.695 1030.61 373.898 873.573 339.772C702.496 302.595 419.202 465.39 129.325 631.969C86.2453 656.723 43.0234 681.557 5.06057e-06 705.835V704.999C42.9036 680.786 86.0033 656.021 128.963 631.337C418.964 464.686 702.381 301.821 873.728 339.056C1031.2 373.276 1093.97 576.32 980.179 1100.31L980.177 1100.31C978.736 1106.85 977.355 1113.29 975.963 1119.74ZM980.059 1119.74H979.316C983.596 1097.15 988.176 1074.06 993.143 1050.33H993.145C1094.56 553.562 1027.66 361.953 870.061 329.757C702.372 295.5 431.936 441.521 152.222 592.552C101.6 619.884 50.6757 647.377 5.06057e-06 674V673.175C50.5624 646.609 101.37 619.18 151.876 591.91C431.709 440.815 702.259 294.734 870.208 329.043C1028.25 361.327 1095.38 553.177 993.86 1050.48V1050.48C988.901 1074.16 984.329 1097.2 980.059 1119.74ZM986.365 1119.74H985.627C991.594 1081.82 998.629 1042.12 1006.82 1000.51C1096 530.06 1024.5 349.731 865.999 319.665C701.739 288.509 443.988 418.544 174.725 554.388C116.745 583.641 58.2325 613.157 5.06057e-06 641.396V640.586C58.1222 612.396 116.525 582.934 174.397 553.737C443.773 417.837 701.631 287.745 866.133 318.949C1025.08 349.097 1096.82 529.662 1007.54 1000.65V1000.65C999.357 1042.21 992.327 1081.86 986.365 1119.74ZM995.568 1119.74H994.837C1000.95 1067.46 1009.43 1011.22 1020.5 950.698C1097.46 506.097 1021.03 337.168 861.176 309.482C700.449 281.644 455.341 396.423 196.933 517.431C131.756 547.956 65.7331 578.866 5.06057e-06 607.992V607.194C65.6287 578.108 131.548 547.247 196.625 516.771C455.141 395.714 700.352 280.884 861.298 308.76C1021.59 336.525 1098.27 505.683 1021.22 950.82L1021.22 950.825C1010.16 1011.31 1001.68 1067.51 995.568 1119.74ZM1008.64 1119.74H1007.91C1012.07 1054.48 1020.68 981.76 1034.18 900.88C1098.91 481.541 1017.1 324.179 855.28 299.186C698.288 274.937 465.938 375.134 218.955 481.642C146.717 512.794 73.2253 544.486 5.06057e-06 573.762V572.976C73.1293 543.732 146.523 512.082 218.667 480.972C465.748 374.419 698.192 274.183 855.392 298.461C1017.66 323.522 1099.71 481.112 1034.9 900.99V900.996C1021.4 981.838 1012.8 1054.52 1008.64 1119.74ZM1027.17 1119.74H1026.44C1025.68 1043.47 1032.49 954.431 1047.86 851.058H1047.86C1100.31 456.202 1012.49 310.644 847.834 288.756C694.906 268.427 475.657 354.662 240.914 446.991C161.724 478.136 80.7721 509.969 5.06057e-06 538.647V537.871C80.6796 509.219 161.544 477.423 240.648 446.309C475.48 353.947 694.812 267.68 847.93 288.033C1013.03 309.981 1101.11 455.758 1048.59 851.159V851.165C1033.22 954.513 1026.41 1043.52 1027.17 1119.74ZM1053.91 1119.74H1053.18C1043 1035.56 1045.05 930.553 1061.54 801.249C1101.62 429.809 1006.82 296.412 838.054 278.19C689.74 262.176 484.265 335.013 262.964 413.459C176.894 443.969 88.4314 475.321 -0.000762939 502.634V501.87C88.3473 474.577 176.73 443.254 262.722 412.771C484.103 334.295 689.652 261.433 838.132 277.465C1007.35 295.735 1102.4 429.341 1062.27 801.327L1062.26 801.333C1045.78 930.639 1043.72 1035.61 1053.91 1119.74ZM1094.58 1119.74H1093.8C1066.47 1033.07 1058.64 912.95 1075.22 751.436C1102.71 401.896 999.45 281.252 824.603 267.494C681.844 256.259 491.338 316.21 285.287 381.051C192.369 410.291 96.2926 440.518 5.06057e-06 465.67V464.914C96.2162 439.776 192.221 409.572 285.069 380.354C491.191 315.489 681.762 255.519 824.661 266.764C999.95 280.558 1103.48 401.402 1075.95 751.493L1075.95 751.501C1059.36 913.073 1067.21 1033.16 1094.58 1119.74ZM1165.08 1119.74H1164.1C1102.86 1042.69 1073.65 910.153 1088.9 701.614C1103.36 371.669 989.143 264.826 804.99 256.751C669.462 250.81 496.036 298.312 308.125 349.783C208.335 377.115 104.46 405.558 5.06057e-06 427.721V426.975C104.395 404.82 208.204 376.396 307.933 349.079C495.902 297.594 669.382 250.076 805.02 256.023C989.619 264.116 1104.11 371.144 1089.63 701.656V701.666C1074.36 910.425 1103.68 1042.9 1165.08 1119.74ZM1920 1030.17V1030.98C1853.18 1063.38 1787.27 1093.67 1723.55 1119.74H1721.61C1785.94 1093.48 1852.51 1062.9 1920 1030.17ZM1920 940.107V940.909C1716.3 1036 1522.12 1111.73 1374.06 1106.17C1200.4 1099.66 1090.23 981.44 1102.58 651.807C1103.11 337.525 973.309 246.636 773.951 246.301C648.936 246.089 496.552 281.46 331.793 319.703C225.034 344.484 113.08 370.464 5.06057e-06 388.76V388.02C113.02 369.729 224.921 343.759 331.632 318.991C496.426 280.74 648.846 245.361 773.951 245.57C973.753 245.909 1103.84 336.961 1103.31 651.816V651.83C1090.98 980.924 1200.87 1098.95 1374.09 1105.45C1522.07 1110.99 1716.27 1035.23 1920 940.107ZM1920 849.853V850.651C1730.92 935.296 1551.09 1003.48 1409.67 1004.4C1234.48 1005.54 1118.22 903.544 1116.26 602.011C1100.83 295.382 945.046 225.967 717.637 237.416C610.778 242.795 488.097 266.022 356.738 290.891C242.807 312.46 122.346 335.253 5.06057e-06 348.727V347.993C122.296 334.519 242.716 311.734 356.604 290.172C487.988 265.3 610.692 242.069 717.602 236.688C945.446 225.217 1101.53 294.762 1116.99 601.976V601.991C1118.94 902.992 1234.91 1004.81 1409.66 1003.67C1551.03 1002.76 1730.88 934.525 1920 849.853ZM1920 759.4V760.193C1748.77 833.329 1586.09 893.291 1453.22 901.538C1272.62 912.746 1147.08 828.501 1129.94 552.207C1084.57 161.465 776.835 206.254 383.593 263.486C262.146 281.162 132.547 300.014 5.06057e-06 307.609V306.877C132.509 299.28 262.074 280.434 383.489 262.765C777.149 205.47 1085.21 160.636 1130.67 552.127L1130.67 552.147C1147.77 827.905 1273.01 911.991 1453.17 900.808C1586.01 892.563 1748.73 832.565 1920 759.4ZM1920 668.726V669.514C1773.02 729.054 1633.11 779.25 1513.23 795.372C1319.47 821.429 1178.05 758.527 1143.63 502.406C1076.61 170.807 787.306 199.993 413.329 237.72C283.802 250.786 144.122 264.872 5.06057e-06 265.362V264.632C144.094 264.142 283.752 250.058 413.257 236.994C787.608 199.228 1077.2 170.012 1144.34 502.274L1144.35 502.298C1178.69 757.877 1319.8 820.647 1513.13 794.648C1633 778.528 1772.96 728.296 1920 668.726ZM1920 577.8V578.582C1812.91 619.421 1710.03 655.584 1616.04 677.459C1389.62 730.16 1214.85 699.964 1157.31 452.608C1070.11 179.379 799.885 194.391 447.503 213.969C308.986 221.666 157.778 230.054 5.06057e-06 221.939V221.206C157.76 229.323 308.958 220.935 447.463 213.241C800.173 193.645 1070.65 178.618 1158.01 452.412L1158.02 452.438C1215.43 699.239 1389.87 729.35 1615.88 676.747C1709.9 654.864 1812.84 618.669 1920 577.8ZM1920 486.584V487.359C1574.48 610.285 1277.83 688.778 1171.02 402.856C1065.78 187.102 815.997 189.61 488.786 192.893C339.795 194.387 174.758 196.031 5.06057e-06 177.327V176.591C174.753 195.303 339.792 193.659 488.779 192.164C816.255 188.877 1066.24 186.37 1171.68 402.538L1171.68 402.544L1171.69 402.57C1278.28 687.954 1574.72 609.436 1920 486.584ZM1920 395.049V395.815C1594.05 502.769 1316.53 575.437 1184.72 353.078C1064.95 193.801 838.332 185.944 542.216 175.68C380.234 170.066 197.463 163.721 5.06057e-06 131.491V130.752C197.469 162.991 380.253 169.336 542.24 174.952C838.564 185.223 1065.34 193.084 1185.32 352.657L1185.34 352.675L1185.34 352.689C1316.89 574.64 1594.25 501.945 1920 395.049ZM1920 303.143V303.905C1613.69 395.247 1354.81 462.766 1198.46 303.323C1070.72 199.018 872.926 183.989 618.514 164.657C438.967 151.015 231.227 135.223 5.06057e-06 84.4097V83.6598C231.247 134.491 439.009 150.285 618.568 163.929C873.116 183.271 1071.02 198.307 1198.94 302.767L1198.96 302.781L1198.97 302.796C1355.05 461.993 1613.82 394.451 1920 303.143ZM1920 210.809V211.565C1633.39 287.733 1392.58 350.883 1212.24 253.56C1091.54 201.405 936.064 184.903 744.92 164.615C538.564 142.714 290.641 116.393 5.06057e-06 36.0515V35.2938C290.675 115.661 538.626 141.986 744.996 163.889C936.208 184.183 1091.74 200.691 1212.53 252.891L1212.56 252.905C1392.7 350.129 1633.45 286.961 1920 210.809ZM175.227 0H177.496C889.362 246.137 1249.84 167.973 1686.77 73.1785C1761.56 56.953 1838.59 40.2432 1920 24.5891V25.3348C1838.64 40.9812 1761.66 57.6791 1686.92 73.8947C1249.45 168.802 888.631 247.064 175.227 0ZM41.6321 0H44.0271C453.044 131.078 763.67 158.84 1010.89 180.905C1088.52 187.832 1159.9 194.205 1226.12 203.042H1226.13C1412.73 236.18 1615.94 188.81 1854.02 133.307C1875.72 128.249 1897.71 123.124 1920 117.985V118.735C1897.77 123.86 1875.83 128.974 1854.19 134.019C1616.02 189.54 1412.75 236.926 1226.01 203.762C1159.8 194.927 1088.43 188.558 1010.82 181.631C763.13 159.524 451.791 131.699 41.6321 0ZM5.06057e-06 766.487C27.1392 749.17 54.3683 731.69 81.6012 714.204C391.393 515.302 701.463 316.219 879.649 358.906C1029.21 394.734 1085.8 600.737 971.281 1119.74H970.538C1085 601.141 1028.64 395.348 879.481 359.613C701.596 317.001 391.657 515.999 81.9948 714.82C54.6301 732.389 27.269 749.954 5.06057e-06 767.355V766.487Z" fill="white" fill-opacity="0.5"/>
<defs>
<linearGradient id="paint0_linear_100_422" x1="33.0249" y1="1052.79" x2="1788.04" y2="119.562" gradientUnits="userSpaceOnUse">
<stop stop-color="#49C246"/>
<stop offset="1" stop-color="#B0F392"/>
</linearGradient>
</defs>
</svg>
