<svg width="141" height="141" viewBox="0 0 141 141" fill="none" xmlns="http://www.w3.org/2000/svg">
<path opacity="0.1" d="M134.684 9.8988H78.6631C76.9372 9.8988 75.5381 11.2979 75.5381 13.0238V52.0944H5.33249C3.60655 52.0944 2.20749 53.4935 2.20749 55.2194V111.24C2.20749 112.966 3.60655 114.365 5.33249 114.365H43.7859V132.563H36.5484C35.6856 132.563 34.9859 133.262 34.9859 134.125V137.948C34.9859 138.811 35.6856 139.51 36.5484 139.51H72.3328C73.1956 139.51 73.8953 138.811 73.8953 137.948V134.125C73.8953 133.262 73.1956 132.563 72.3328 132.563H65.0953V114.365H96.0191V132.563H88.7812C87.9184 132.563 87.2187 133.262 87.2187 134.125V137.948C87.2187 138.811 87.9184 139.51 88.7812 139.51H124.566C125.428 139.51 126.128 138.811 126.128 137.948V134.125C126.128 133.262 125.428 132.563 124.566 132.563H117.328V114.365H134.684C136.41 114.365 137.809 112.966 137.809 111.24V13.0238C137.809 11.2979 136.409 9.8988 134.684 9.8988ZM50.5669 132.563V123.6C50.5669 121.462 52.3003 119.728 54.4387 119.728C56.5772 119.728 58.3106 121.462 58.3106 123.6V132.563H50.5669ZM102.8 132.563V123.6C102.8 121.462 104.533 119.728 106.672 119.728C108.81 119.728 110.544 121.462 110.544 123.6V132.563H102.8Z" fill="#2626BC"/>
<path d="M117.32 103.144V125.063H110.536V116.1C110.536 113.962 108.802 112.228 106.664 112.228C104.525 112.228 102.792 113.962 102.792 116.1V125.063H96.0106V103.144H117.32Z" fill="#4369FD"/>
<path d="M75.53 103.74V5.5238C75.53 3.79787 76.9291 2.3988 78.655 2.3988H134.675C136.401 2.3988 137.8 3.79787 137.8 5.5238V103.74C137.8 105.466 136.401 106.865 134.675 106.865H78.655C76.9294 106.865 75.53 105.466 75.53 103.74Z" fill="#8399FE"/>
<path d="M128.091 21.0845V64.1595C128.091 65.022 127.394 65.722 126.528 65.722H91.7C90.8375 65.722 90.1375 65.022 90.1375 64.1595V21.0845H128.091Z" fill="white"/>
<path d="M115.494 43.7517C119.9 43.7517 123.472 40.1796 123.472 35.7732C123.472 31.3669 119.9 27.7948 115.494 27.7948C111.087 27.7948 107.515 31.3669 107.515 35.7732C107.515 40.1796 111.087 43.7517 115.494 43.7517Z" fill="#FF7EB8"/>
<path d="M115.494 37.022V47.8229C115.494 48.512 114.934 49.0714 114.245 49.0714H103.444C102.755 49.0714 102.196 48.512 102.196 47.8229V37.022C102.196 36.3329 102.755 35.7736 103.444 35.7736H114.245C114.934 35.7732 115.494 36.3326 115.494 37.022Z" fill="#01ECA5"/>
<path d="M128.092 21.0835V13.6754C128.092 12.8126 127.392 12.1129 126.53 12.1129H91.7003C90.8375 12.1129 90.1378 12.8126 90.1378 13.6754V21.0835H128.092Z" fill="#FF7EB8"/>
<path d="M84.455 106.865V2.3988H78.655C76.9291 2.3988 75.53 3.79787 75.53 5.5238V103.74C75.53 105.466 76.9291 106.865 78.655 106.865H84.455Z" fill="#4369FD"/>
<path d="M124.558 132.01H88.7731C87.9103 132.01 87.2106 131.311 87.2106 130.448V126.625C87.2106 125.762 87.9103 125.062 88.7731 125.062H124.558C125.42 125.062 126.12 125.762 126.12 126.625V130.448C126.12 131.311 125.42 132.01 124.558 132.01Z" fill="#9FB0FE"/>
<path d="M94.0169 125.062H119.537V132.01H94.0169V125.062Z" fill="#8399FE"/>
<path d="M65.0872 103.144V125.063H58.3028V116.1C58.3028 113.962 56.5694 112.228 54.4309 112.228C52.2925 112.228 50.5591 113.962 50.5591 116.1V125.063H43.7778V103.144H65.0872Z" fill="#4369FD"/>
<path d="M103.54 106.865H5.32437C3.59843 106.865 2.19937 105.466 2.19937 103.74V47.7194C2.19937 45.9934 3.59843 44.5944 5.32437 44.5944H103.54C105.266 44.5944 106.665 45.9934 106.665 47.7194V103.74C106.665 105.466 105.266 106.865 103.54 106.865Z" fill="#9FB0FE"/>
<path d="M91.2688 44.5938V61.4281C91.2688 63.1531 89.8719 64.5531 88.1438 64.5531H50.4281C48.7 64.5531 47.3031 63.1531 47.3031 61.4281V44.5938H91.2688Z" fill="#8399FE"/>
<path d="M106.665 97.9399H2.19937V103.74C2.19937 105.466 3.59843 106.865 5.32437 106.865H103.54C105.266 106.865 106.665 105.466 106.665 103.74V97.9399Z" fill="#6583FE"/>
<path d="M72.3247 132.01H36.5403C35.6775 132.01 34.9778 131.311 34.9778 130.448V126.625C34.9778 125.762 35.6775 125.062 36.5403 125.062H72.3247C73.1875 125.062 73.8872 125.762 73.8872 126.625V130.448C73.8872 131.311 73.1875 132.01 72.3247 132.01Z" fill="#9FB0FE"/>
<path d="M41.7841 125.062H67.3041V132.01H41.7841V125.062Z" fill="#8399FE"/>
<path d="M88.1453 57.0525H50.4272C48.7012 57.0525 47.3022 55.6535 47.3022 53.9275V35.2616C47.3022 33.5357 48.7012 32.1366 50.4272 32.1366H88.1453C89.8712 32.1366 91.2703 33.5357 91.2703 35.2616V53.9275C91.2703 55.6532 89.8712 57.0525 88.1453 57.0525Z" fill="#01ECA5"/>
<path d="M134.676 0.836304H78.655C76.0703 0.836304 73.9675 2.93912 73.9675 5.5238V23.2597C73.9675 24.1229 74.6669 24.8222 75.53 24.8222C76.3931 24.8222 77.0925 24.1229 77.0925 23.2597V5.5238C77.0925 4.66224 77.7934 3.9613 78.655 3.9613H134.676C135.537 3.9613 136.238 4.66224 136.238 5.5238V103.74C136.238 104.601 135.537 105.302 134.676 105.302H107.955C108.129 104.813 108.228 104.289 108.228 103.741V47.7188C108.228 45.1341 106.125 43.0313 103.541 43.0313H92.8325V35.2616C92.8325 32.6769 90.7297 30.5741 88.145 30.5741H50.4272C47.8425 30.5741 45.7397 32.6769 45.7397 35.2616V43.0313H5.325C2.74031 43.0313 0.637497 45.1341 0.637497 47.7188V103.741C0.637497 106.325 2.74031 108.428 5.325 108.428H19.6219C20.485 108.428 21.1844 107.729 21.1844 106.866C21.1844 106.003 20.485 105.303 19.6219 105.303H5.325C4.46343 105.303 3.7625 104.602 3.7625 103.741V47.7188C3.7625 46.8572 4.46343 46.1563 5.325 46.1563H45.7397V53.9276C45.7397 56.5122 47.8425 58.6151 50.4272 58.6151H88.145C90.7297 58.6151 92.8325 56.5122 92.8325 53.9276V46.1563H103.541C104.402 46.1563 105.103 46.8572 105.103 47.7188V103.741C105.103 104.599 104.407 105.297 103.55 105.302H103.54C103.537 105.302 103.534 105.303 103.531 105.303H28.625C27.7619 105.303 27.0625 106.003 27.0625 106.866C27.0625 107.729 27.7619 108.428 28.625 108.428H42.2153V123.5H36.5403C34.8172 123.5 33.4153 124.902 33.4153 126.625V130.448C33.4153 132.171 34.8172 133.573 36.5403 133.573H72.3247C74.0478 133.573 75.4497 132.171 75.4497 130.448V126.625C75.4497 124.902 74.0478 123.5 72.3247 123.5H66.6497V108.428H94.4484V123.5H88.7734C87.0503 123.5 85.6484 124.902 85.6484 126.625V130.448C85.6484 132.171 87.0503 133.573 88.7734 133.573H124.558C126.281 133.573 127.683 132.171 127.683 130.448V126.625C127.683 124.902 126.281 123.5 124.558 123.5H118.883V108.428H134.676C137.261 108.428 139.363 106.325 139.363 103.74V5.5238C139.363 2.93912 137.26 0.836304 134.676 0.836304ZM88.145 55.4901H50.4272C49.5656 55.4901 48.8647 54.7891 48.8647 53.9276V35.2616C48.8647 34.4001 49.5656 33.6991 50.4272 33.6991H88.145C89.0066 33.6991 89.7075 34.4001 89.7075 35.2616V53.9276C89.7075 54.7891 89.0066 55.4901 88.145 55.4901ZM72.3262 130.448H36.5403V126.625H72.3247L72.3262 130.448ZM56.74 123.5H52.1216V116.1C52.1216 114.827 53.1575 113.791 54.4309 113.791C55.7044 113.791 56.7403 114.827 56.7403 116.1V123.5H56.74ZM63.5244 123.5H59.865V116.1C59.865 113.104 57.4272 110.666 54.4306 110.666C51.4341 110.666 48.9962 113.104 48.9962 116.1V123.5H45.34V108.428H63.5241V123.5H63.5244ZM124.559 130.448H88.7731V126.625H124.557L124.559 130.448ZM108.973 123.5H104.355V116.1C104.355 114.827 105.391 113.791 106.664 113.791C107.938 113.791 108.973 114.827 108.973 116.1V123.5H108.973ZM115.757 123.5H112.098V116.1C112.098 113.104 109.66 110.666 106.664 110.666C103.667 110.666 101.229 113.104 101.229 116.1V123.5H97.5731V108.428L115.757 108.427V123.5H115.757Z" fill="#2626BC"/>
<path d="M60.4862 49.7143C60.0866 49.7143 59.6866 49.5618 59.3816 49.2568L55.8241 45.6996C55.5309 45.4065 55.3662 45.009 55.3662 44.5946C55.3662 44.1803 55.5306 43.7828 55.8241 43.4896L59.3816 39.9324C59.9912 39.3228 60.9809 39.3224 61.5912 39.9328C62.2012 40.5428 62.2012 41.5321 61.5909 42.1424L59.1384 44.5946L61.5909 47.0468C62.2012 47.6571 62.2012 48.6465 61.5912 49.2565C61.2859 49.5615 60.8859 49.7143 60.4862 49.7143Z" fill="white"/>
<path d="M78.0866 49.7141C77.6869 49.7141 77.2866 49.5617 76.9819 49.2563C76.3716 48.6463 76.3716 47.657 76.9819 47.047L79.4341 44.5945L76.9819 42.142C76.3716 41.532 76.3716 40.5426 76.9819 39.9326C77.5916 39.3223 78.5816 39.3223 79.1912 39.9326L82.7484 43.4898C83.3587 44.0998 83.3587 45.0891 82.7484 45.6991L79.1912 49.2563C78.8866 49.5613 78.4862 49.7141 78.0866 49.7141Z" fill="white"/>
<path d="M66.2644 50.7557C65.9703 50.7557 65.6725 50.6725 65.4081 50.4991C64.6869 50.025 64.4863 49.0566 64.9597 48.335L71 39.1382C71.4741 38.4169 72.4419 38.2157 73.1641 38.6897C73.8853 39.1638 74.0859 40.1322 73.6125 40.8538L67.5722 50.0507C67.2719 50.5075 66.7731 50.7557 66.2644 50.7557Z" fill="white"/>
<path d="M24.6731 62.1366H40.1147C40.9775 62.1366 41.6772 61.4372 41.6772 60.5741C41.6772 59.711 40.9775 59.0116 40.1147 59.0116H24.6731C23.8103 59.0116 23.1106 59.711 23.1106 60.5741C23.1106 61.4372 23.8103 62.1366 24.6731 62.1366Z" fill="#FFC4DF"/>
<path d="M12.1731 62.1366H18.2397C19.1025 62.1366 19.8022 61.4372 19.8022 60.5741C19.8022 59.711 19.1025 59.0116 18.2397 59.0116H12.1731C11.3103 59.0116 10.6106 59.711 10.6106 60.5741C10.6106 61.4372 11.3103 62.1366 12.1731 62.1366Z" fill="#02FFB3"/>
<path d="M12.1731 68.9279H45.7397C46.6025 68.9279 47.3022 68.2285 47.3022 67.3654C47.3022 66.5022 46.6025 65.8029 45.7397 65.8029H12.1731C11.3103 65.8029 10.6106 66.5022 10.6106 67.3654C10.6106 68.2285 11.3103 68.9279 12.1731 68.9279Z" fill="#FFC4DF"/>
<path d="M12.1731 89.301H45.7397C46.6025 89.301 47.3022 88.6017 47.3022 87.7385C47.3022 86.8754 46.6025 86.176 45.7397 86.176H12.1731C11.3103 86.176 10.6106 86.8754 10.6106 87.7385C10.6106 88.6017 11.3103 89.301 12.1731 89.301Z" fill="#FFC4DF"/>
<path d="M12.1731 75.7188H20.7397C21.6025 75.7188 22.3022 75.0194 22.3022 74.1563C22.3022 73.2931 21.6025 72.5938 20.7397 72.5938H12.1731C11.3103 72.5938 10.6106 73.2931 10.6106 74.1563C10.6106 75.0194 11.3103 75.7188 12.1731 75.7188Z" fill="#02FFB3"/>
<path d="M28.1106 75.7188H36.6772C37.54 75.7188 38.2397 75.0194 38.2397 74.1563C38.2397 73.2931 37.54 72.5938 36.6772 72.5938H28.1106C27.2478 72.5938 26.5481 73.2931 26.5481 74.1563C26.5481 75.0194 27.2478 75.7188 28.1106 75.7188Z" fill="#02FFB3"/>
<path d="M44.0481 75.7188H52.6147C53.4775 75.7188 54.1772 75.0194 54.1772 74.1563C54.1772 73.2931 53.4775 72.5938 52.6147 72.5938H44.0481C43.1853 72.5938 42.4856 73.2931 42.4856 74.1563C42.4856 75.0194 43.1853 75.7188 44.0481 75.7188Z" fill="#02FFB3"/>
<path d="M59.9856 75.7188H68.5522C69.415 75.7188 70.1147 75.0194 70.1147 74.1563C70.1147 73.2931 69.415 72.5938 68.5522 72.5938H59.9856C59.1228 72.5938 58.4231 73.2931 58.4231 74.1563C58.4231 75.0194 59.1228 75.7188 59.9856 75.7188Z" fill="#02FFB3"/>
<path d="M12.1731 82.51H53.3959C54.2588 82.51 54.9584 81.8106 54.9584 80.9475C54.9584 80.0844 54.2588 79.385 53.3959 79.385H12.1731C11.3103 79.385 10.6106 80.0844 10.6106 80.9475C10.6106 81.8106 11.3103 82.51 12.1731 82.51Z" fill="#FFC4DF"/>
<path d="M125.806 74.9197C126.669 74.9197 127.369 74.2201 127.369 73.3572C127.369 72.4942 126.669 71.7947 125.806 71.7947C124.943 71.7947 124.244 72.4942 124.244 73.3572C124.244 74.2201 124.943 74.9197 125.806 74.9197Z" fill="#4369FD"/>
<path d="M125.806 82.3762C126.669 82.3762 127.369 81.6767 127.369 80.8137C127.369 79.9508 126.669 79.2512 125.806 79.2512C124.943 79.2512 124.244 79.9508 124.244 80.8137C124.244 81.6767 124.943 82.3762 125.806 82.3762Z" fill="#4369FD"/>
<path d="M125.806 89.8328C126.669 89.8328 127.369 89.1332 127.369 88.2703C127.369 87.4073 126.669 86.7078 125.806 86.7078C124.943 86.7078 124.244 87.4073 124.244 88.2703C124.244 89.1332 124.943 89.8328 125.806 89.8328Z" fill="#4369FD"/>
<path d="M125.806 97.2893C126.669 97.2893 127.369 96.5898 127.369 95.7268C127.369 94.8639 126.669 94.1643 125.806 94.1643C124.943 94.1643 124.244 94.8639 124.244 95.7268C124.244 96.5898 124.943 97.2893 125.806 97.2893Z" fill="#4369FD"/>
<path d="M119.949 78.6481C120.812 78.6481 121.511 77.9485 121.511 77.0856C121.511 76.2226 120.812 75.5231 119.949 75.5231C119.086 75.5231 118.386 76.2226 118.386 77.0856C118.386 77.9485 119.086 78.6481 119.949 78.6481Z" fill="#4369FD"/>
<path d="M119.949 86.1046C120.812 86.1046 121.511 85.4051 121.511 84.5421C121.511 83.6792 120.812 82.9796 119.949 82.9796C119.086 82.9796 118.386 83.6792 118.386 84.5421C118.386 85.4051 119.086 86.1046 119.949 86.1046Z" fill="#4369FD"/>
<path d="M119.949 93.5612C120.812 93.5612 121.511 92.8616 121.511 91.9987C121.511 91.1357 120.812 90.4362 119.949 90.4362C119.086 90.4362 118.386 91.1357 118.386 91.9987C118.386 92.8616 119.086 93.5612 119.949 93.5612Z" fill="#4369FD"/>
<path d="M95.7997 18.1606C96.6626 18.1606 97.3622 17.4611 97.3622 16.5981C97.3622 15.7352 96.6626 15.0356 95.7997 15.0356C94.9367 15.0356 94.2372 15.7352 94.2372 16.5981C94.2372 17.4611 94.9367 18.1606 95.7997 18.1606Z" fill="white"/>
<path d="M101.571 18.1606C102.434 18.1606 103.133 17.4611 103.133 16.5981C103.133 15.7352 102.434 15.0356 101.571 15.0356C100.708 15.0356 100.008 15.7352 100.008 16.5981C100.008 17.4611 100.708 18.1606 101.571 18.1606Z" fill="white"/>
<path d="M107.342 18.1606C108.204 18.1606 108.904 17.4611 108.904 16.5981C108.904 15.7352 108.204 15.0356 107.342 15.0356C106.479 15.0356 105.779 15.7352 105.779 16.5981C105.779 17.4611 106.479 18.1606 107.342 18.1606Z" fill="white"/>
<path d="M62.7078 18.8194C62.3856 18.8194 62.0634 18.7201 61.7897 18.521L60.5837 17.6448L59.3775 18.521C58.83 18.9188 58.0888 18.9188 57.5406 18.521C56.9931 18.1232 56.7641 17.4179 56.9734 16.7741L57.4341 15.3563L56.2281 14.4801C55.6806 14.0823 55.4516 13.3769 55.6609 12.7332C55.87 12.0891 56.47 11.6535 57.1469 11.6535H58.6378L59.0987 10.2357C59.3078 9.59163 59.9078 9.15601 60.5847 9.15601C61.2616 9.15601 61.8616 9.59194 62.0706 10.2357L62.5316 11.6535H64.0225C64.6994 11.6535 65.2994 12.0894 65.5084 12.7332C65.7178 13.3769 65.4888 14.0819 64.9409 14.4801L63.735 15.3566L64.1956 16.7741C64.405 17.4179 64.1759 18.1229 63.6284 18.521C63.3525 18.7201 63.03 18.8194 62.7078 18.8194Z" fill="#FF7EB8"/>
<path d="M12.735 35.896C12.4128 35.896 12.0906 35.7966 11.8166 35.5975L10.6109 34.7213L9.40469 35.5975C8.85719 35.9954 8.11563 35.9954 7.56813 35.5975C7.02032 35.1997 6.79125 34.4944 7.00063 33.8507L7.46125 32.4329L6.25532 31.5563C5.70782 31.1585 5.47875 30.4532 5.68813 29.8094C5.89719 29.1654 6.49719 28.7297 7.17407 28.7297H8.665L9.12594 27.3122C9.335 26.6682 9.935 26.2325 10.6119 26.2325C11.2888 26.2325 11.8888 26.6685 12.0978 27.3122L12.5588 28.7297H14.0497C14.7266 28.7297 15.3266 29.1657 15.5356 29.8094C15.745 30.4532 15.5159 31.1582 14.9681 31.5563L13.7622 32.4329L14.2228 33.8507C14.4322 34.4947 14.2031 35.1997 13.6553 35.5975C13.3794 35.7963 13.0572 35.896 12.735 35.896Z" fill="#01ECA5"/>
<path d="M137.909 140.197C137.587 140.197 137.264 140.098 136.991 139.898L135.784 139.022L134.579 139.898C134.031 140.296 133.289 140.296 132.742 139.898C132.194 139.501 131.965 138.795 132.174 138.152L132.635 136.734L131.429 135.858C130.881 135.46 130.652 134.754 130.862 134.111C131.071 133.467 131.671 133.031 132.347 133.031H133.838L134.299 131.613C134.508 130.969 135.108 130.533 135.785 130.533C136.462 130.533 137.062 130.969 137.271 131.613L137.732 133.031H139.223C139.9 133.031 140.5 133.467 140.709 134.111C140.918 134.754 140.689 135.459 140.142 135.858L138.936 136.734L139.397 138.152C139.606 138.795 139.377 139.5 138.829 139.898C138.553 140.098 138.231 140.197 137.909 140.197Z" fill="#8399FE"/>
<path d="M20.6316 130.18C20.3094 130.18 19.9872 130.081 19.7134 129.882C19.1656 129.484 18.9366 128.779 19.1459 128.135L19.6066 126.717L18.4006 125.84C17.8528 125.443 17.6238 124.737 17.8331 124.094C18.0422 123.449 18.6422 123.014 19.3191 123.014H20.81L21.2709 121.596C21.48 120.952 22.08 120.516 22.7569 120.516C23.4338 120.516 24.0338 120.952 24.2428 121.596L24.7038 123.014H26.1947C26.8716 123.014 27.4716 123.45 27.6806 124.094C27.89 124.737 27.6609 125.442 27.1134 125.84L25.9075 126.717L26.3681 128.135C26.5775 128.779 26.3484 129.484 25.8006 129.882C25.2531 130.279 24.5116 130.279 23.9641 129.882L22.7578 129.005L21.5522 129.882C21.2759 130.08 20.9538 130.18 20.6316 130.18Z" fill="#01ECA5"/>
<path d="M44.6847 27.8023C44.285 27.8023 43.8847 27.6498 43.58 27.3445L40.2987 24.0632C39.6884 23.4532 39.6884 22.4639 40.2987 21.8539L43.58 18.5726C44.1897 17.9623 45.1797 17.9623 45.7894 18.5726L49.0706 21.8539C49.6809 22.4639 49.6809 23.4532 49.0706 24.0632L45.7894 27.3445C45.4847 27.6498 45.0847 27.8023 44.6847 27.8023ZM43.6131 22.9585L44.6847 24.0301L45.7562 22.9585L44.6847 21.887L43.6131 22.9585Z" fill="#8399FE"/>
</svg>
