<svg width="160" height="160" viewBox="0 0 160 160" fill="none" xmlns="http://www.w3.org/2000/svg">
<path d="M147.054 22.4565C130.229 0.153089 88.11 -4.41566 62.0391 3.82715C15.4281 18.5647 -7.74345 82.0062 14.2684 128.833C34.8353 172.586 106.306 168.761 123.34 126.831C128.323 114.565 127.698 100.79 130.772 87.9128C134.386 72.7662 168.582 50.9934 147.054 22.4565Z" fill="url(#paint0_linear_33_2586)"/>
<path opacity="0.1" d="M146.579 56.085C146.579 46.099 138.484 38.004 128.498 38.004C128.016 38.004 127.541 38.0284 127.069 38.0656C127.984 36.0206 128.498 33.7562 128.498 31.3706C128.498 22.3097 121.152 14.9644 112.092 14.9644C103.8 14.9644 96.949 21.1169 95.8447 29.1047C90.7925 27.7325 85.4812 26.9956 80.0003 26.9956C46.6378 26.9956 19.4956 54.1378 19.4956 87.5003C19.4956 98.7956 22.61 109.376 28.0203 118.433C27.3959 119.409 26.8009 120.589 26.2375 121.979C24.92 125.23 24.0003 129.162 24.0003 131.542C24.0003 135.867 27.1331 139.471 31.2478 140.211V146.442H25.5628C24.6997 146.442 24.0003 147.142 24.0003 148.005C24.0003 148.868 24.6997 149.567 25.5628 149.567L127.19 149.569C127.194 149.569 127.197 149.567 127.202 149.567H134.437C135.301 149.567 136 148.868 136 148.005C136 147.142 135.301 146.442 134.437 146.442H128.752V140.211C132.867 139.471 136 135.867 136 131.542C136 128.893 134.573 122.458 131.971 118.449C137.387 109.388 140.505 98.8022 140.505 87.5006C140.505 81.8834 139.733 76.4437 138.294 71.279C143.277 68.0594 146.579 62.4597 146.579 56.085ZM40.8012 146.442H34.3728V140.211C35.2034 140.061 35.994 139.796 36.7272 139.431C37.9162 140.4 39.3012 141.072 40.8015 141.35V146.442H40.8012ZM47.4209 146.442H43.9265V141.349C45.1884 141.116 46.37 140.605 47.4209 139.872V146.442ZM47.4209 113.584C41.6837 106.432 38.2456 97.3609 38.2456 87.5003C38.2456 77.6397 41.6834 68.5684 47.4209 61.4165V113.584ZM71.9856 68.7469V64.0872H77.2069V68.7459V68.7469H71.9856ZM80.3319 68.7469C80.3319 68.7465 80.3319 68.7462 80.3319 68.7459V64.0872H84.41V68.7459V68.7469H80.3319ZM87.535 68.7469C87.535 68.7465 87.535 68.7462 87.535 68.7459V64.0872H91.6131V68.7459V68.7469H87.535ZM94.7381 68.7469C94.7381 68.7465 94.7381 68.7462 94.7381 68.7459V64.0872H98.6812V68.7459V68.7469H94.7381ZM102.881 92.4753V70.3094C102.881 69.615 102.425 69.0331 101.798 68.8297C101.799 68.8012 101.806 68.7747 101.806 68.7459V62.5247C101.806 61.6615 101.107 60.9622 100.244 60.9622H71.9856V46.5206C74.5803 46.014 77.2594 45.7456 80.0003 45.7456C92.1259 45.7456 103.059 50.9425 110.694 59.224C111.556 64.1462 114.404 68.3853 118.387 71.0769C120.553 76.1206 121.755 81.6725 121.755 87.5003C121.755 93.0394 120.668 98.3287 118.701 103.17L102.881 92.4753ZM125.627 146.442H120.682V137.474C121.96 138.875 123.685 139.861 125.627 140.211V146.442Z" fill="#0000CB"/>
<path d="M95.6859 21.5572C121.469 28.4837 140.505 52.0609 140.505 80.0006C140.505 113.363 113.363 140.505 80.0006 140.505C46.6381 140.505 19.4956 113.363 19.4956 80.0003C19.4956 46.6378 46.6378 19.4956 80.0003 19.4956C82.0853 19.4956 84.1462 19.6015 86.1778 19.8084L90.6894 23.8706L95.6859 21.5572ZM80.0003 38.2456C56.9765 38.2456 38.2456 56.9765 38.2456 80.0003C38.2456 103.024 56.9765 121.755 80.0003 121.755C103.024 121.755 121.755 103.024 121.755 80.0003C121.755 56.9765 103.024 38.2456 80.0003 38.2456Z" fill="#FFAA66"/>
<path d="M79.9997 140.506C46.6372 140.506 19.4934 113.362 19.4934 79.9997L27.7912 72.1028C28.3947 71.5287 29.3422 71.5287 29.9456 72.1028L38.2434 79.9997C38.2434 103.025 56.9747 121.756 79.9997 121.756L72.1028 130.054C71.5287 130.657 71.5287 131.605 72.1028 132.208L79.9997 140.506Z" fill="#FFC498"/>
<path d="M87.8969 29.9462L80 38.244C56.975 38.244 38.2438 56.9753 38.2438 80.0003L29.946 72.1034C29.3425 71.5293 28.395 71.5293 27.7916 72.1034L19.4938 80.0003C19.4938 46.6378 46.6375 19.494 80 19.494L87.8969 27.7918C88.471 28.3953 88.471 29.3428 87.8969 29.9462Z" fill="#FF6C6C"/>
<path d="M140.507 80.0003L132.209 87.8971C131.605 88.4712 130.658 88.4712 130.054 87.8971L121.757 80.0003C121.757 56.9753 103.025 38.244 80.0003 38.244L87.8972 29.9462C88.4712 29.3428 88.4712 28.3953 87.8972 27.7918L80.0003 19.494C113.363 19.494 140.507 46.6378 140.507 80.0003Z" fill="#8282FF"/>
<path d="M121.096 72.5806C123.356 73.5963 125.859 74.1659 128.498 74.1659C132.738 74.1659 136.635 72.7022 139.718 70.2578C136.042 47.6425 119.786 29.195 98.3872 22.3538C96.6812 24.9416 95.6853 28.0391 95.6853 31.3706C95.6853 40.4316 103.031 47.7769 112.092 47.7769C112.21 47.7769 112.327 47.7703 112.445 47.7678C111.767 49.0744 111.247 50.4756 110.901 51.9438C116.061 57.6219 119.681 64.7231 121.096 72.5806Z" fill="#6C6CFF"/>
<path d="M101.39 83.9678L119.307 96.0793C120.166 96.6606 120.682 97.6306 120.682 98.6684V139.568C120.682 140.086 120.262 140.506 119.744 140.506H101.39V83.9678Z" fill="#D8D8FF"/>
<path d="M113.654 133.383H109.165C108.647 133.383 108.227 132.963 108.227 132.446V107.225C108.227 106.707 108.647 106.287 109.165 106.287H113.654C114.172 106.287 114.591 106.707 114.591 107.225V132.446C114.591 132.963 114.172 133.383 113.654 133.383Z" fill="#FFAA66"/>
<path d="M101.391 130.788V140.506H119.744C120.262 140.506 120.682 140.086 120.682 139.568V130.788H101.391Z" fill="#8282FF"/>
<path d="M120.681 98.6687V106.287L101.39 93.2469V83.9688L119.306 96.08C120.166 96.6612 120.681 97.6312 120.681 98.6687Z" fill="#B2B2FF"/>
<path d="M48.3584 140.505H71.9856V38.5084C71.9856 37.6456 71.2859 36.9459 70.4231 36.9459H48.9834C48.1206 36.9459 47.4209 37.6456 47.4209 38.5084V139.567C47.4209 140.085 47.8406 140.505 48.3584 140.505Z" fill="#6C6CFF"/>
<path d="M61.9477 61.246H57.4584C56.9406 61.246 56.5209 60.8263 56.5209 60.3085V55.8191C56.5209 55.3013 56.9406 54.8816 57.4584 54.8816H61.9477C62.4656 54.8816 62.8852 55.3013 62.8852 55.8191V60.3085C62.8852 60.8263 62.4656 61.246 61.9477 61.246Z" fill="#FFC498"/>
<path d="M102.881 62.8093V140.506H57.1187V62.8093C57.1187 61.9468 57.8187 61.2468 58.6812 61.2468H101.319C102.181 61.2468 102.881 61.9468 102.881 62.8093Z" fill="#9393FF"/>
<path d="M57.1187 130.787H102.881V140.506H57.1187V130.787Z" fill="#6C6CFF"/>
<path d="M67.748 76.8227H63.2587C62.7409 76.8227 62.3212 76.4031 62.3212 75.8852V71.3959C62.3212 70.8781 62.7409 70.4584 63.2587 70.4584H67.748C68.2659 70.4584 68.6855 70.8781 68.6855 71.3959V75.8852C68.6855 76.4031 68.2659 76.8227 67.748 76.8227Z" fill="#FFC498"/>
<path d="M61.9477 50.5056H57.4584C56.9406 50.5056 56.5209 50.0859 56.5209 49.5681V45.0787C56.5209 44.5609 56.9406 44.1412 57.4584 44.1412H61.9477C62.4656 44.1412 62.8852 44.5609 62.8852 45.0787V49.5681C62.8852 50.0859 62.4656 50.5056 61.9477 50.5056Z" fill="#FFC498"/>
<path d="M77.4124 76.8227H72.923C72.4052 76.8227 71.9855 76.4031 71.9855 75.8852V71.3959C71.9855 70.8781 72.4052 70.4584 72.923 70.4584H77.4124C77.9302 70.4584 78.3499 70.8781 78.3499 71.3959V75.8852C78.3499 76.4031 77.9302 76.8227 77.4124 76.8227Z" fill="#FFC498"/>
<path d="M87.0768 76.8227H82.5875C82.0697 76.8227 81.65 76.4031 81.65 75.8852V71.3959C81.65 70.8781 82.0697 70.4584 82.5875 70.4584H87.0768C87.5946 70.4584 88.0143 70.8781 88.0143 71.3959V75.8852C88.0143 76.4031 87.5946 76.8227 87.0768 76.8227Z" fill="#FFC498"/>
<path d="M96.7412 76.8227H92.2518C91.734 76.8227 91.3143 76.4031 91.3143 75.8852V71.3959C91.3143 70.8781 91.734 70.4584 92.2518 70.4584H96.7412C97.259 70.4584 97.6787 70.8781 97.6787 71.3959V75.8852C97.6787 76.4031 97.259 76.8227 96.7412 76.8227Z" fill="#FFC498"/>
<path d="M67.7481 88.3278H63.2587C62.7409 88.3278 62.3212 87.9081 62.3212 87.3903V82.9009C62.3212 82.3831 62.7409 81.9634 63.2587 81.9634H67.7481C68.2659 81.9634 68.6856 82.3831 68.6856 82.9009V87.3903C68.6856 87.9081 68.2659 88.3278 67.7481 88.3278Z" fill="#FFC498"/>
<path d="M77.4125 88.3278H72.9231C72.4053 88.3278 71.9856 87.9081 71.9856 87.3903V82.9009C71.9856 82.3831 72.4053 81.9634 72.9231 81.9634H77.4125C77.9303 81.9634 78.35 82.3831 78.35 82.9009V87.3903C78.35 87.9081 77.9303 88.3278 77.4125 88.3278Z" fill="#FFC498"/>
<path d="M87.0768 88.3278H82.5875C82.0697 88.3278 81.65 87.9081 81.65 87.3903V82.9009C81.65 82.3831 82.0697 81.9634 82.5875 81.9634H87.0768C87.5946 81.9634 88.0143 82.3831 88.0143 82.9009V87.3903C88.0143 87.9081 87.5946 88.3278 87.0768 88.3278Z" fill="#FFC498"/>
<path d="M96.7412 88.3278H92.2518C91.734 88.3278 91.3143 87.9081 91.3143 87.3903V82.9009C91.3143 82.3831 91.734 81.9634 92.2518 81.9634H96.7412C97.259 81.9634 97.6787 82.3831 97.6787 82.9009V87.3903C97.6787 87.9081 97.259 88.3278 96.7412 88.3278Z" fill="#FFC498"/>
<path d="M67.7481 99.8328H63.2587C62.7409 99.8328 62.3212 99.4131 62.3212 98.8953V94.4059C62.3212 93.8881 62.7409 93.4684 63.2587 93.4684H67.7481C68.2659 93.4684 68.6856 93.8881 68.6856 94.4059V98.8953C68.6856 99.4131 68.2659 99.8328 67.7481 99.8328Z" fill="#FFC498"/>
<path d="M77.4125 99.8328H72.9231C72.4053 99.8328 71.9856 99.4131 71.9856 98.8953V94.4059C71.9856 93.8881 72.4053 93.4684 72.9231 93.4684H77.4125C77.9303 93.4684 78.35 93.8881 78.35 94.4059V98.8953C78.35 99.4131 77.9303 99.8328 77.4125 99.8328Z" fill="#FFC498"/>
<path d="M87.0768 99.8328H82.5875C82.0697 99.8328 81.65 99.4131 81.65 98.8953V94.4059C81.65 93.8881 82.0697 93.4684 82.5875 93.4684H87.0768C87.5946 93.4684 88.0143 93.8881 88.0143 94.4059V98.8953C88.0143 99.4131 87.5946 99.8328 87.0768 99.8328Z" fill="#FFC498"/>
<path d="M96.7412 99.8328H92.2518C91.734 99.8328 91.3143 99.4131 91.3143 98.8953V94.4059C91.3143 93.8881 91.734 93.4684 92.2518 93.4684H96.7412C97.259 93.4684 97.6787 93.8881 97.6787 94.4059V98.8953C97.6787 99.4131 97.259 99.8328 96.7412 99.8328Z" fill="#FFC498"/>
<path d="M67.7481 111.338H63.2587C62.7409 111.338 62.3212 110.918 62.3212 110.4V105.911C62.3212 105.393 62.7409 104.973 63.2587 104.973H67.7481C68.2659 104.973 68.6856 105.393 68.6856 105.911V110.4C68.6856 110.918 68.2659 111.338 67.7481 111.338Z" fill="#FFC498"/>
<path d="M77.4125 111.338H72.9231C72.4053 111.338 71.9856 110.918 71.9856 110.4V105.911C71.9856 105.393 72.4053 104.973 72.9231 104.973H77.4125C77.9303 104.973 78.35 105.393 78.35 105.911V110.4C78.35 110.918 77.9303 111.338 77.4125 111.338Z" fill="#FFC498"/>
<path d="M87.0768 111.338H82.5875C82.0697 111.338 81.65 110.918 81.65 110.4V105.911C81.65 105.393 82.0697 104.973 82.5875 104.973H87.0768C87.5946 104.973 88.0143 105.393 88.0143 105.911V110.4C88.0143 110.918 87.5946 111.338 87.0768 111.338Z" fill="#FFC498"/>
<path d="M96.7412 111.338H92.2518C91.734 111.338 91.3143 110.918 91.3143 110.4V105.911C91.3143 105.393 91.734 104.973 92.2518 104.973H96.7412C97.259 104.973 97.6787 105.393 97.6787 105.911V110.4C97.6787 110.918 97.259 111.338 96.7412 111.338Z" fill="#FFC498"/>
<path d="M42.3638 132.432C46.8809 132.432 50.5428 128.141 50.5428 122.848C50.5428 117.555 46.8809 113.265 42.3638 113.265C37.8466 113.265 34.1847 117.555 34.1847 122.848C34.1847 128.141 37.8466 132.432 42.3638 132.432Z" fill="#FF6C6C"/>
<path d="M40.0581 124.042C40.0581 128.045 36.8131 131.29 32.8103 131.29C28.8075 131.29 25.5625 128.045 25.5625 124.042C25.5625 120.039 28.8075 109.092 32.8103 109.092C36.8131 109.092 40.0581 120.039 40.0581 124.042Z" fill="#9393FF"/>
<path d="M134.437 124.042C134.437 128.045 131.192 131.29 127.189 131.29C123.187 131.29 119.942 128.045 119.942 124.042C119.942 120.039 123.187 109.092 127.189 109.092C131.192 109.092 134.437 120.039 134.437 124.042Z" fill="#9393FF"/>
<path d="M112.092 40.2769C121.152 40.2769 128.498 32.9315 128.498 23.8706C128.498 14.8097 121.152 7.46436 112.092 7.46436C103.031 7.46436 95.6853 14.8097 95.6853 23.8706C95.6853 32.9315 103.031 40.2769 112.092 40.2769Z" fill="#FF8A00"/>
<path d="M112.092 35.9019C118.736 35.9019 124.123 30.5153 124.123 23.8706C124.123 17.2259 118.736 11.8394 112.092 11.8394C105.447 11.8394 100.06 17.2259 100.06 23.8706C100.06 30.5153 105.447 35.9019 112.092 35.9019Z" fill="#FFAA66"/>
<path d="M113.725 30.4922H108.468C107.605 30.4922 106.906 29.7928 106.906 28.9297C106.906 28.0666 107.605 27.3672 108.468 27.3672H113.725C114.258 27.3672 114.692 26.9332 114.692 26.4C114.692 25.8669 114.258 25.4328 113.725 25.4328H110.458C108.202 25.4328 106.366 23.5972 106.366 21.341C106.366 19.0844 108.202 17.2488 110.458 17.2488H115.715C116.578 17.2488 117.277 17.9482 117.277 18.8113C117.277 19.6744 116.578 20.3738 115.715 20.3738H110.458C109.925 20.3738 109.491 20.8078 109.491 21.341C109.491 21.8741 109.925 22.3078 110.458 22.3078H113.725C115.982 22.3078 117.817 24.1435 117.817 26.4C117.817 28.6566 115.982 30.4922 113.725 30.4922Z" fill="white"/>
<path d="M112.091 32.9519C111.228 32.9519 110.529 32.2525 110.529 31.3894V28.9297C110.529 28.0666 111.228 27.3672 112.091 27.3672C112.954 27.3672 113.654 28.0666 113.654 28.9297V31.3894C113.654 32.2525 112.954 32.9519 112.091 32.9519Z" fill="white"/>
<path d="M112.091 20.3741C111.228 20.3741 110.529 19.6747 110.529 18.8116V16.3516C110.529 15.4884 111.228 14.7891 112.091 14.7891C112.954 14.7891 113.654 15.4884 113.654 16.3516V18.8116C113.654 19.6747 112.954 20.3741 112.091 20.3741Z" fill="white"/>
<path d="M128.498 66.6659C138.484 66.6659 146.579 58.5708 146.579 48.585C146.579 38.5991 138.484 30.504 128.498 30.504C118.512 30.504 110.417 38.5991 110.417 48.585C110.417 58.5708 118.512 66.6659 128.498 66.6659Z" fill="#6C6CFF"/>
<path d="M148.141 48.5853C148.141 38.0306 139.773 29.3975 129.323 28.9628C129.809 27.32 130.06 25.6165 130.06 23.8706C130.06 13.9625 122 5.90186 112.092 5.90186C102.183 5.90186 94.1228 13.9625 94.1228 23.8706C94.1228 33.1028 101.122 40.7278 110.093 41.7256C109.387 43.6122 108.963 45.635 108.874 47.7428C100.966 40.6737 90.6544 36.684 80.0006 36.684C77.7425 36.684 75.4825 36.8625 73.2622 37.2103C72.7678 36.1344 71.6828 35.3837 70.4234 35.3837H48.984C47.2609 35.3837 45.859 36.7856 45.859 38.5087V53.3731C39.9397 60.9509 36.6837 70.3834 36.6837 80.0015C36.6837 89.7522 39.8565 98.9534 45.859 106.63V112.448C44.7731 111.969 43.595 111.703 42.3631 111.703C41.0334 111.703 39.7384 112.015 38.5375 112.602C37.0884 109.742 35.1587 107.53 32.8109 107.53C31.4643 107.53 30.2009 108.218 29.0281 109.572C23.8078 100.607 21.0584 90.4293 21.0584 80.0012C21.0584 47.5003 47.4997 21.059 80.0006 21.059C82.23 21.059 84.5025 21.19 86.7559 21.4484C87.6184 21.5465 88.3878 20.9309 88.4862 20.074C88.5844 19.2169 87.969 18.4419 87.1118 18.3437C84.7409 18.0722 82.3484 17.934 80.0006 17.934C45.7765 17.934 17.9334 45.7775 17.9334 80.0012C17.9334 91.5106 21.1153 102.729 27.1381 112.494C26.8303 113.102 26.5293 113.76 26.2378 114.479C24.9203 117.73 24.0006 121.662 24.0006 124.042C24.0006 128.367 27.1334 131.971 31.2481 132.711V138.942H25.5628C24.6997 138.942 24.0003 139.642 24.0003 140.505C24.0003 141.368 24.6997 142.067 25.5628 142.067H134.437C135.3 142.067 136 141.368 136 140.505C136 139.642 135.3 138.942 134.437 138.942H128.752V132.711C132.867 131.971 136 128.367 136 124.042C136 121.713 134.896 116.457 132.862 112.496C138.885 102.731 142.067 91.5118 142.067 80.0012C142.067 74.7278 141.394 69.4978 140.082 64.4356C144.964 60.8584 148.141 55.0872 148.141 48.5853ZM97.2475 23.8706C97.2475 15.6859 103.907 9.02686 112.091 9.02686C120.276 9.02686 126.935 15.6859 126.935 23.8706C126.935 25.6828 126.613 27.44 125.982 29.1084C119.818 29.9003 114.542 33.5575 111.533 38.7003C103.607 38.4053 97.2475 31.8684 97.2475 23.8706ZM73.5481 56.5872H77.2072V59.6831H73.5481V56.5872ZM39.8081 80.0012C39.8081 72.3903 41.8881 65.1503 45.8584 58.8062V101.184C41.8918 94.8393 39.8081 87.6015 39.8081 80.0012ZM27.1253 124.042C27.1253 119.549 30.5803 110.655 32.8103 110.655C33.4237 110.655 34.8884 111.707 36.4875 115.653C37.7918 118.872 38.4959 122.378 38.4959 124.042C38.4959 127.177 35.9456 129.727 32.8106 129.727C29.6756 129.727 27.1253 127.177 27.1253 124.042ZM40.8012 138.942H34.3728V132.712C35.2 132.563 35.9875 132.298 36.7181 131.935C37.9331 132.924 39.3284 133.577 40.8012 133.849V138.942ZM45.8584 138.942H43.9262V133.846C44.595 133.722 45.2418 133.521 45.8584 133.249V138.942ZM42.3628 130.869C41.2993 130.869 40.2612 130.549 39.329 129.963C40.7525 128.398 41.6209 126.319 41.6209 124.042C41.6209 122.265 40.9787 118.786 39.7712 115.477C40.5872 115.052 41.4659 114.828 42.3628 114.828C46.0125 114.828 48.9815 118.427 48.9815 122.85C48.9812 127.272 46.0122 130.869 42.3628 130.869ZM101.318 138.942H58.6822V96.4984C58.6822 95.6353 57.9828 94.9359 57.1197 94.9359C56.2565 94.9359 55.5572 95.6353 55.5572 96.4984V138.942H48.9834V131.016C50.9025 128.979 52.1062 126.073 52.1062 122.85C52.1062 119.626 50.9022 116.719 48.9834 114.682V38.5087H70.4228V59.6834H58.6822C56.959 59.6834 55.5572 61.0853 55.5572 62.8084V87.6287C55.5572 88.4918 56.2565 89.1912 57.1197 89.1912C57.9828 89.1912 58.6822 88.4918 58.6822 87.6287V62.8084H101.318V138.942ZM80.3319 59.6831V56.5872H84.41V59.6831H80.3319ZM87.535 59.6831V56.5872H91.6131V59.6831H87.535ZM94.7381 59.6831V56.5872H98.6812V59.6831H94.7381ZM119.119 119.115C118.655 120.977 118.379 122.742 118.379 124.042C118.379 125.297 118.645 126.49 119.119 127.571V138.942H104.443V87.9169L118.432 97.3737C118.862 97.6647 119.119 98.1484 119.119 98.6681V119.115ZM117.942 93.2709L104.443 84.145V62.8081C104.443 61.2518 103.297 59.9609 101.806 59.7253V55.0247C101.806 54.1615 101.107 53.4622 100.244 53.4622H73.5478V40.3275C75.6712 39.984 77.8365 39.8087 80 39.8087C91.0253 39.8087 101.657 44.4153 109.239 52.4565C110.237 57.4312 113.123 61.729 117.112 64.5772C119.155 69.47 120.192 74.6565 120.192 80.0009C120.192 84.5622 119.437 89.0169 117.942 93.2709ZM125.627 138.942H122.244V131.325C123.245 132.006 124.391 132.488 125.627 132.711V138.942ZM132.875 124.042C132.875 127.177 130.324 129.727 127.19 129.727C124.055 129.727 121.504 127.177 121.504 124.042C121.504 119.549 124.96 110.655 127.19 110.655C127.803 110.655 129.268 111.707 130.867 115.653C132.171 118.873 132.875 122.378 132.875 124.042ZM130.961 109.593C129.864 108.332 128.603 107.53 127.19 107.53C125.386 107.53 123.73 108.761 122.244 111.184V98.6684C122.244 97.2862 121.637 95.9894 120.6 95.1044C122.403 90.2772 123.318 85.2031 123.318 80.0012C123.318 75.4897 122.63 71.0815 121.275 66.8469C123.513 67.735 125.948 68.2284 128.498 68.2284C131.66 68.2284 134.647 67.4731 137.295 66.1403C138.388 70.6584 138.942 75.3119 138.942 80.0012C138.942 90.4381 136.189 100.623 130.961 109.593ZM128.497 65.1034C119.389 65.1034 111.979 57.6934 111.979 48.5853C111.979 39.4772 119.389 32.0669 128.497 32.0669C137.606 32.0669 145.016 39.4772 145.016 48.5853C145.016 57.6934 137.606 65.1034 128.497 65.1034Z" fill="#0000CB"/>
<path d="M121.455 57.1919C121.055 57.1919 120.655 57.0394 120.35 56.7341C118.173 54.5575 116.975 51.6638 116.975 48.5863C116.975 42.2325 122.144 37.0635 128.498 37.0635C129.361 37.0635 130.06 37.7629 130.06 38.626C130.06 38.8107 130.028 38.9944 129.964 39.1675L128.307 43.6582C128.009 44.4672 127.112 44.8813 126.301 44.5835C125.491 44.2847 125.077 43.3863 125.375 42.5766L126.131 40.5275C122.649 41.5516 120.1 44.7769 120.1 48.586C120.1 50.8291 120.973 52.9382 122.559 54.5244C123.169 55.1347 123.169 56.1238 122.559 56.7341C122.254 57.0391 121.855 57.1919 121.455 57.1919Z" fill="#D8D8FF"/>
<path d="M128.499 60.1297C128.408 60.1297 128.316 60.1219 128.223 60.1054C127.478 59.9722 126.935 59.3244 126.935 58.5672C126.935 58.3529 126.978 58.1472 127.057 57.9594L128.688 53.536C128.986 52.7263 129.884 52.3119 130.694 52.6104C131.504 52.9088 131.918 53.8072 131.62 54.6169L130.873 56.6419C134.351 55.6151 136.896 52.3919 136.896 48.5863C136.896 46.3426 136.022 44.2338 134.436 42.6482C133.826 42.0379 133.826 41.0488 134.436 40.4385C135.046 39.8282 136.035 39.8285 136.646 40.4382C138.822 42.6144 140.021 45.5082 140.021 48.5863C140.021 54.8485 134.999 59.9601 128.772 60.106C128.682 60.1219 128.591 60.1297 128.499 60.1297Z" fill="#D8D8FF"/>
<path d="M148.394 115.206C147.994 115.206 147.594 115.053 147.289 114.748L145.582 113.04L143.874 114.748C143.264 115.358 142.274 115.358 141.664 114.748C141.054 114.138 141.054 113.148 141.664 112.538L144.477 109.726C145.087 109.116 146.077 109.116 146.686 109.726L149.499 112.538C150.109 113.148 150.109 114.138 149.499 114.748C149.194 115.053 148.794 115.206 148.394 115.206Z" fill="#FF6C6C"/>
<path d="M29.1112 20.8807C28.7116 20.8807 28.3113 20.7282 28.0066 20.4228L26.2987 18.7153L24.5909 20.4228C23.9813 21.0332 22.9912 21.0332 22.3816 20.4228C21.7712 19.8128 21.7712 18.8235 22.3816 18.2135L25.1941 15.401C25.8038 14.7907 26.7937 14.7907 27.4034 15.401L30.2159 18.2135C30.8263 18.8235 30.8263 19.8128 30.2159 20.4228C29.9113 20.7282 29.5112 20.8807 29.1112 20.8807Z" fill="#FF6C6C"/>
<path d="M17.8613 121.181C17.4616 121.181 17.0613 121.028 16.7566 120.723L15.0488 119.015L13.3409 120.723C12.7313 121.333 11.7413 121.333 11.1316 120.723C10.5212 120.113 10.5212 119.123 11.1316 118.513L13.9441 115.701C14.5538 115.091 15.5438 115.091 16.1534 115.701L18.9659 118.513C19.5763 119.123 19.5763 120.113 18.9659 120.723C18.6613 121.028 18.2613 121.181 17.8613 121.181Z" fill="#FF9C33"/>
<path d="M42.8331 21.1931C40.2484 21.1931 38.1456 19.0903 38.1456 16.5056C38.1456 13.9209 40.2484 11.8181 42.8331 11.8181C45.4178 11.8181 47.5206 13.9209 47.5206 16.5056C47.5206 19.0903 45.4181 21.1931 42.8331 21.1931ZM42.8331 14.9431C41.9716 14.9431 41.2706 15.6441 41.2706 16.5056C41.2706 17.3672 41.9716 18.0681 42.8331 18.0681C43.6947 18.0681 44.3956 17.3672 44.3956 16.5056C44.3956 15.6441 43.6947 14.9431 42.8331 14.9431Z" fill="#6C6CFF"/>
<path d="M146.579 140.585C143.994 140.585 141.891 138.483 141.891 135.898C141.891 133.313 143.994 131.21 146.579 131.21C149.163 131.21 151.266 133.313 151.266 135.898C151.266 138.483 149.163 140.585 146.579 140.585ZM146.579 134.335C145.717 134.335 145.016 135.036 145.016 135.898C145.016 136.759 145.717 137.46 146.579 137.46C147.44 137.46 148.141 136.759 148.141 135.898C148.141 135.036 147.44 134.335 146.579 134.335Z" fill="#FF9C33"/>
<defs>
<linearGradient id="paint0_linear_33_2586" x1="18.125" y1="136.993" x2="140.126" y2="14.9922" gradientUnits="userSpaceOnUse">
<stop stop-color="#FFF2ED" stop-opacity="0"/>
<stop offset="0.2938" stop-color="#FFE9DD" stop-opacity="0.373"/>
<stop offset="0.7874" stop-color="#FFD5BA"/>
</linearGradient>
</defs>
</svg>
