<svg width="160" height="160" viewBox="0 0 160 160" fill="none" xmlns="http://www.w3.org/2000/svg">
<g clip-path="url(#clip0_33_2478)">
<path d="M152.865 9.08932C145.008 1.67245 133.232 -5.05447e-05 120.294 7.04995C107.738 13.8924 87.6372 38.0821 76.7381 28.5812C69.1978 22.0084 84.8115 -2.13099 67.6231 0.151512C49.1872 2.59964 4.5031 28.3728 1.07404 57.6453C-1.27471 77.6959 10.2931 89.7228 33.9656 82.1753C111.378 57.4934 69.3919 97.6084 48.6812 133.987C41.8084 146.06 48.5028 162.879 63.5212 159.579C98.7 151.85 182.902 37.4428 152.865 9.08932Z" fill="url(#paint0_linear_33_2478)"/>
<path opacity="0.1" d="M129.401 84.2878H125.901L122.304 69.8997C121.283 65.8162 117.614 62.9515 113.405 62.9515H111.717L111.332 61.8972C114.103 59.354 115.842 55.7031 115.842 51.6453C115.842 44.1528 109.917 38.0465 102.498 37.7478V27.314C102.498 24.7253 100.4 22.6265 97.8109 22.6265H43.9165C41.474 17.7334 36.4212 14.3712 30.5806 14.3712C22.3518 14.3712 15.6809 21.0418 15.6809 29.2709C15.6809 37.4997 22.3518 44.1706 30.5806 44.1706V64.8231C30.5806 67.4118 32.6793 69.5106 35.2681 69.5106H58.6497L69.8162 76.9003C70.855 77.5878 72.2409 76.8428 72.2409 75.5972V69.5106H81.9375C81.899 69.6403 81.8556 69.7678 81.8225 69.9L78.2253 84.2881H54.3581C51.7693 84.2881 49.6706 86.3868 49.6706 88.9756V98.6562H44.4037C36.7043 98.6562 30.2175 104.955 30.264 112.654C30.2875 116.503 31.8753 119.979 34.4215 122.485H31.755C27.719 122.485 24.2012 125.232 23.2215 129.148L18.5953 147.657C17.5884 151.684 20.6328 155.582 24.7828 155.582H63.5684C67.7184 155.582 70.7628 151.684 69.7559 147.657L67.1975 137.422H79.9278V143.508C79.9278 144.754 81.3137 145.499 82.3525 144.812L93.519 137.422H129.401C131.989 137.422 134.088 135.323 134.088 132.734V88.9753C134.088 86.3865 131.989 84.2878 129.401 84.2878ZM53.9259 122.484C54.194 122.221 54.4487 121.944 54.695 121.66L54.9534 122.484H53.9259Z" fill="#0000CA"/>
<path d="M102.497 19.1906V56.6968C102.497 59.2874 100.4 61.3843 97.8092 61.3843H72.2404V67.4718C72.2404 68.7187 70.8561 69.4624 69.8154 68.7749L58.6498 61.3843H35.2686C32.6779 61.3843 30.5811 59.2874 30.5811 56.6968V44.1718C35.4373 39.1905 32.2842 34.9843 30.5811 33.3155V19.1906C30.5811 16.5999 32.6779 14.5031 35.2686 14.5031H97.8092C100.4 14.5031 102.497 16.5999 102.497 19.1906Z" fill="#FFD4B9"/>
<path d="M102.497 37.7469V56.6969C102.497 59.2875 100.4 61.3844 97.8093 61.3844H91.9968C89.5343 58.8781 88.0187 55.4375 88.0187 51.6469C88.0187 43.9625 94.2468 37.7344 101.928 37.7344C102.119 37.7344 102.309 37.7375 102.497 37.7469Z" fill="#FFC397"/>
<path d="M33.8262 14.73C31.9434 15.3384 30.5806 17.1037 30.5806 19.189V44.1703C38.8093 44.1703 45.4803 37.4994 45.4803 29.2706C45.4806 22.1572 40.4937 16.2119 33.8262 14.73Z" fill="#FFC397"/>
<path d="M127.509 78.6088L122.883 60.1004C121.903 56.1841 118.386 53.4366 114.35 53.4366H89.509C85.473 53.4366 81.9552 56.1841 80.9755 60.1004L76.3493 78.6088C75.3424 82.636 78.3868 86.5341 82.5368 86.5341H86.348H117.511H121.322C125.472 86.5341 128.516 82.636 127.509 78.6088Z" fill="#FFA966"/>
<path d="M115.711 53.5427C114.786 60.3302 108.967 65.5583 101.93 65.5583C94.8893 65.5583 89.0705 60.3302 88.1455 53.5427C88.5893 53.4739 89.0455 53.4364 89.508 53.4364H114.349C114.811 53.4364 115.267 53.4739 115.711 53.5427Z" fill="#FF9B33"/>
<path d="M86.3478 77.9004H83.109C82.2459 77.9004 81.5465 77.2007 81.5465 76.3379C81.5465 75.4751 82.2459 74.7754 83.109 74.7754H86.3478C87.2109 74.7754 87.9103 75.4751 87.9103 76.3379C87.9103 77.2007 87.2109 77.9004 86.3478 77.9004Z" fill="#FF8900"/>
<path d="M86.3478 88.0973C85.4847 88.0973 84.7853 87.3976 84.7853 86.5348V66.1414C84.7853 65.2785 85.4847 64.5789 86.3478 64.5789C87.2109 64.5789 87.9103 65.2785 87.9103 66.1414V86.5348C87.9103 87.3976 87.2109 88.0973 86.3478 88.0973Z" fill="#FF8900"/>
<path d="M120.749 77.9004H117.51C116.647 77.9004 115.948 77.2007 115.948 76.3379C115.948 75.4751 116.647 74.7754 117.51 74.7754H120.749C121.612 74.7754 122.311 75.4751 122.311 76.3379C122.311 77.2007 121.612 77.9004 120.749 77.9004Z" fill="#FF8900"/>
<path d="M117.51 88.0973C116.647 88.0973 115.948 87.3976 115.948 86.5348V66.1414C115.948 65.2785 116.647 64.5789 117.51 64.5789C118.373 64.5789 119.073 65.2785 119.073 66.1414V86.5348C119.073 87.3976 118.373 88.0973 117.51 88.0973Z" fill="#FF8900"/>
<path d="M101.929 57.4324C109.613 57.4324 115.841 51.2038 115.841 43.5205C115.841 35.8372 109.613 29.6086 101.929 29.6086C94.246 29.6086 88.0175 35.8372 88.0175 43.5205C88.0175 51.2038 94.246 57.4324 101.929 57.4324Z" fill="#FFA966"/>
<path d="M101.929 52.1827C98.5859 52.1827 95.5756 50.3243 94.0737 47.3324C93.6869 46.5611 93.9981 45.6221 94.7693 45.2349C95.5409 44.8477 96.4797 45.1592 96.8668 45.9305C97.8353 47.8592 99.775 49.0577 101.929 49.0577C104.084 49.0577 106.024 47.8596 106.992 45.9305C107.38 45.1596 108.319 44.848 109.09 45.2349C109.861 45.6221 110.172 46.5611 109.785 47.3324C108.283 50.3243 105.273 52.1827 101.929 52.1827Z" fill="#FF8900"/>
<path d="M101.723 40.0077C100.061 40.0077 98.2581 39.4689 96.5494 37.957C95.9031 37.3852 95.8425 36.3977 96.4141 35.7514C96.9859 35.1055 97.9734 35.0448 98.6197 35.6164C100.385 37.1783 102.198 37.0336 103.485 36.5752L102.22 35.5767C101.543 35.042 101.427 34.0595 101.962 33.3823C102.497 32.7048 103.479 32.5895 104.156 33.1242L107.242 35.5605C107.612 35.852 107.83 36.2942 107.836 36.7648C107.843 37.2352 107.637 37.6836 107.277 37.9855C106.161 38.9189 104.083 40.0073 101.723 40.0077Z" fill="#FFC397"/>
<path d="M129.401 76.1627H54.358C51.7693 76.1627 49.6705 78.2615 49.6705 80.8502V124.609C49.6705 127.198 51.7693 129.297 54.358 129.297H79.9274V135.383C79.9274 136.629 81.3134 137.374 82.3521 136.686L93.5187 129.297H129.4C131.989 129.297 134.088 127.198 134.088 124.609V80.8502C134.088 78.2615 131.989 76.1627 129.401 76.1627Z" fill="#6C6CFF"/>
<path d="M58.0877 112.567C58.0874 109.19 56.883 106.094 54.8812 103.685L57.1699 101.396C58.1808 100.385 57.4649 98.6561 56.0352 98.6561H49.4702V124.609C49.4702 124.88 49.4983 125.145 49.5424 125.404C54.5558 123.301 58.088 118.346 58.0877 112.567Z" fill="#4D4DFF"/>
<path d="M99.4998 108.255L84.9673 94.3492L77.7011 108.255L70.4348 101.302L63.1686 108.255V118.005H99.4998V108.255Z" fill="#FFA966"/>
<path d="M102.179 116.442H101.062V108.255C101.062 107.392 100.363 106.692 99.4999 106.692C98.6367 106.692 97.9374 107.392 97.9374 108.255V116.442H93.7961V101.302C93.7961 100.439 93.0968 99.7396 92.2336 99.7396C91.3705 99.7396 90.6711 100.439 90.6711 101.302V116.442H86.5299V94.3492C86.5299 93.4864 85.8305 92.7867 84.9674 92.7867C84.1042 92.7867 83.4049 93.4864 83.4049 94.3492V116.442H79.2636V108.255C79.2636 107.392 78.5639 106.692 77.7011 106.692C76.8383 106.692 76.1386 107.392 76.1386 108.255V116.442H71.9974V101.302C71.9974 100.439 71.2977 99.7396 70.4349 99.7396C69.5721 99.7396 68.8724 100.439 68.8724 101.302V116.442H64.7311V108.255C64.7311 107.392 64.0314 106.692 63.1686 106.692C62.3058 106.692 61.6061 107.392 61.6061 108.255V116.442H60.4899C59.6271 116.442 58.9274 117.142 58.9274 118.005C58.9274 118.868 59.6271 119.567 60.4899 119.567H102.179C103.042 119.567 103.741 118.868 103.741 118.005C103.741 117.142 103.042 116.442 102.179 116.442Z" fill="#FF8900"/>
<path d="M30.5808 36.0456C38.8097 36.0456 45.4805 29.3748 45.4805 21.1459C45.4805 12.917 38.8097 6.24622 30.5808 6.24622C22.352 6.24622 15.6812 12.917 15.6812 21.1459C15.6812 29.3748 22.352 36.0456 30.5808 36.0456Z" fill="#FF4D4D"/>
<path d="M30.581 26.1046C29.7182 26.1046 29.0185 25.4049 29.0185 24.5421C29.0185 22.939 30.0232 21.5162 31.5185 21.0021C32.7388 20.5824 33.5188 19.4315 33.4594 18.1377C33.3928 16.693 32.1635 15.4637 30.7188 15.3971C29.9219 15.3602 29.1657 15.6424 28.591 16.1912C28.016 16.7405 27.6991 17.4805 27.6991 18.2755C27.6991 19.1383 26.9994 19.838 26.1366 19.838C25.2738 19.838 24.5741 19.1383 24.5741 18.2755C24.5741 16.6187 25.2341 15.0758 26.4325 13.9312C27.6303 12.7871 29.2003 12.1983 30.8625 12.2755C33.9282 12.4168 36.44 14.9287 36.581 17.9943C36.7032 20.644 35.0388 23.0962 32.5344 23.9574C32.3041 24.0365 32.1432 24.2768 32.1432 24.5421C32.1435 25.4049 31.4438 26.1046 30.581 26.1046Z" fill="#FFA966"/>
<path d="M30.5809 30.3468C29.7181 30.3468 29.0184 29.6499 29.0184 28.7871V28.7815C29.0184 27.9187 29.7181 27.219 30.5809 27.219C31.4437 27.219 32.1434 27.9187 32.1434 28.7815C32.1434 29.6443 31.4437 30.3468 30.5809 30.3468Z" fill="#FFA966"/>
<path d="M87.2169 29.8507H52.7059C51.8431 29.8507 51.1434 29.151 51.1434 28.2882V24.1891C51.1434 23.3263 51.8431 22.6266 52.7059 22.6266H87.2169C88.0797 22.6266 88.7794 23.3263 88.7794 24.1891V28.2882C88.7794 29.1513 88.0797 29.8507 87.2169 29.8507Z" fill="#FFA966"/>
<path d="M80.1212 39.725L76.9753 37.254C76.9665 37.2471 76.9565 37.2428 76.9478 37.2359V35.6503C76.9478 34.7875 76.2481 34.0878 75.3853 34.0878C74.5224 34.0878 73.8228 34.7875 73.8228 35.6503V37.2359C73.8137 37.2428 73.8037 37.2471 73.7949 37.254L71.6278 38.9562C71.0159 39.4368 70.6571 40.1587 70.644 40.9368C70.6309 41.715 70.9643 42.4487 71.56 42.9503L76.6803 47.2618L75.3853 48.2787L72.5796 46.075C71.9009 45.5418 70.9187 45.6603 70.3856 46.3387C69.8524 47.0171 69.9706 47.9996 70.6493 48.5328L73.7949 51.0034C73.8037 51.0103 73.8137 51.015 73.8228 51.0215V52.6071C73.8228 53.47 74.5224 54.1696 75.3853 54.1696C76.2481 54.1696 76.9478 53.47 76.9478 52.6071V51.0215C76.9568 51.0146 76.9668 51.0103 76.9756 51.0034L79.1428 49.3012C79.7546 48.8206 80.1134 48.0984 80.1265 47.3203C80.1396 46.5421 79.8059 45.8084 79.2106 45.3071L74.0903 40.9956L75.3853 39.9784L78.1912 42.1821C78.8699 42.7153 79.8521 42.5971 80.3853 41.9184C80.9178 41.2403 80.7999 40.2581 80.1212 39.725Z" fill="#FF8900"/>
<path d="M65.2175 37.2131H56.4541C55.5913 37.2131 54.8916 36.5134 54.8916 35.6506C54.8916 34.7878 55.5913 34.0881 56.4541 34.0881H65.2175C66.0804 34.0881 66.78 34.7878 66.78 35.6506C66.78 36.5134 66.0804 37.2131 65.2175 37.2131Z" fill="#FF6C6C"/>
<path d="M65.2175 42.5978H47.6484C46.7856 42.5978 46.0859 41.8981 46.0859 41.0353C46.0859 40.1725 46.7856 39.4728 47.6484 39.4728H65.2175C66.0803 39.4728 66.78 40.1725 66.78 41.0353C66.78 41.8981 66.0803 42.5978 65.2175 42.5978Z" fill="#FF6C6C"/>
<path d="M50.1621 37.2131H47.6487C46.7859 37.2131 46.0862 36.5134 46.0862 35.6506C46.0862 34.7878 46.7859 34.0881 47.6487 34.0881H50.1621C51.0249 34.0881 51.7246 34.7878 51.7246 35.6506C51.7246 36.5134 51.0249 37.2131 50.1621 37.2131Z" fill="#FF6C6C"/>
<path d="M56.4121 47.9824H41.3987C40.5359 47.9824 39.8362 47.2827 39.8362 46.4199C39.8362 45.5571 40.5359 44.8574 41.3987 44.8574H56.4121C57.2749 44.8574 57.9746 45.5571 57.9746 46.4199C57.9746 47.2827 57.2749 47.9824 56.4121 47.9824Z" fill="#FF6C6C"/>
<path d="M65.2175 53.3671H41.3984C40.5356 53.3671 39.8359 52.6674 39.8359 51.8046C39.8359 50.9418 40.5356 50.2421 41.3984 50.2421H65.2175C66.0803 50.2421 66.78 50.9418 66.78 51.8046C66.78 52.6674 66.0803 53.3671 65.2175 53.3671Z" fill="#FF6C6C"/>
<path d="M65.2175 47.9824H62.7041C61.8413 47.9824 61.1416 47.2827 61.1416 46.4199C61.1416 45.5571 61.8413 44.8574 62.7041 44.8574H65.2175C66.0804 44.8574 66.78 45.5571 66.78 46.4199C66.78 47.2827 66.0804 47.9824 65.2175 47.9824Z" fill="#FF6C6C"/>
<path d="M99.9428 96.1071C97.2756 96.1071 95.1056 93.9371 95.1056 91.2696V85.4846C95.1056 84.6218 95.805 83.9221 96.6681 83.9221C97.5312 83.9221 98.2306 84.6218 98.2306 85.4846V91.2696C98.2306 92.2137 98.9987 92.9821 99.9428 92.9821C100.887 92.9821 101.655 92.214 101.655 91.2696V85.4846C101.655 84.6218 102.354 83.9221 103.217 83.9221C104.081 83.9221 104.78 84.6218 104.78 85.4846V91.2696C104.78 93.9371 102.61 96.1071 99.9428 96.1071Z" fill="#D7D7FF"/>
<path d="M112.702 83.9221H108.75C107.887 83.9221 107.188 84.6218 107.188 85.4846V94.5446C107.188 95.4074 107.887 96.1071 108.75 96.1071C109.613 96.1071 110.313 95.4074 110.313 94.5446V92.2434H112.702C114.996 92.2434 116.862 90.3768 116.862 88.0827C116.862 85.7887 114.996 83.9221 112.702 83.9221ZM112.702 89.1184H110.313V87.0474H112.702C113.273 87.0474 113.737 87.5118 113.737 88.0827C113.737 88.6537 113.273 89.1184 112.702 89.1184Z" fill="#D7D7FF"/>
<path d="M126.767 86.3946L124.359 84.3046C123.771 83.7943 122.898 83.7949 122.311 84.3046L119.902 86.3946C119.251 86.9602 119.181 87.9471 119.747 88.599C120.056 88.9549 120.49 89.1374 120.927 89.1374C121.221 89.1374 121.514 89.0509 121.772 88.8834V94.5446C121.772 95.4074 122.472 96.1071 123.335 96.1071C124.198 96.1071 124.897 95.4074 124.897 94.5446V88.8809C125.54 89.2974 126.406 89.1943 126.922 88.599C127.488 87.9471 127.419 86.9602 126.767 86.3946Z" fill="#D7D7FF"/>
<path d="M125.743 108.158H112.017C111.153 108.158 110.454 107.458 110.454 106.596C110.454 105.733 111.153 105.033 112.017 105.033H125.743C126.606 105.033 127.305 105.733 127.305 106.596C127.305 107.458 126.606 108.158 125.743 108.158Z" fill="#4D4DFF"/>
<path d="M117.613 113.9H109.008C108.145 113.9 107.446 113.2 107.446 112.338C107.446 111.475 108.145 110.775 109.008 110.775H117.613C118.476 110.775 119.176 111.475 119.176 112.338C119.176 113.2 118.476 113.9 117.613 113.9Z" fill="#4D4DFF"/>
<path d="M125.743 119.642H109.008C108.145 119.642 107.446 118.943 107.446 118.08C107.446 117.217 108.145 116.517 109.008 116.517H125.743C126.606 116.517 127.305 117.217 127.305 118.08C127.305 118.943 126.606 119.642 125.743 119.642Z" fill="#4D4DFF"/>
<path d="M125.743 113.9H123.779C122.916 113.9 122.217 113.2 122.217 112.338C122.217 111.475 122.916 110.775 123.779 110.775H125.743C126.606 110.775 127.305 111.475 127.305 112.338C127.305 113.2 126.606 113.9 125.743 113.9Z" fill="#4D4DFF"/>
<path d="M69.9493 86.4631C70.8123 86.4631 71.5118 85.7636 71.5118 84.9006C71.5118 84.0377 70.8123 83.3381 69.9493 83.3381C69.0864 83.3381 68.3868 84.0377 68.3868 84.9006C68.3868 85.7636 69.0864 86.4631 69.9493 86.4631Z" fill="#D7D7FF"/>
<path d="M64.7493 86.4631C65.6122 86.4631 66.3118 85.7636 66.3118 84.9006C66.3118 84.0377 65.6122 83.3381 64.7493 83.3381C63.8863 83.3381 63.1868 84.0377 63.1868 84.9006C63.1868 85.7636 63.8863 86.4631 64.7493 86.4631Z" fill="#D7D7FF"/>
<path d="M59.5493 86.4631C60.4123 86.4631 61.1118 85.7636 61.1118 84.9006C61.1118 84.0377 60.4123 83.3381 59.5493 83.3381C58.6864 83.3381 57.9868 84.0377 57.9868 84.9006C57.9868 85.7636 58.6864 86.4631 59.5493 86.4631Z" fill="#D7D7FF"/>
<path d="M69.7556 139.531L65.1294 121.023C64.1497 117.107 60.6319 114.359 56.5959 114.359H31.7553C27.7194 114.359 24.2015 117.107 23.2219 121.023L18.5956 139.531C17.5887 143.559 20.6331 147.457 24.7831 147.457H28.5937H59.7569H63.5681C67.7181 147.457 70.7625 143.559 69.7556 139.531Z" fill="#8181FF"/>
<path d="M57.9578 114.465C57.0328 121.253 51.2141 126.481 44.1766 126.481C37.136 126.481 31.3172 121.253 30.3922 114.465C30.836 114.397 31.2922 114.359 31.7547 114.359H56.5953C57.0578 114.359 57.5141 114.397 57.9578 114.465Z" fill="#6C6CFF"/>
<path d="M28.5943 125.501C27.7315 125.501 27.0318 126.201 27.0318 127.064V135.698H25.3556C24.4928 135.698 23.7931 136.398 23.7931 137.261C23.7931 138.123 24.4928 138.823 25.3556 138.823H27.0318V147.457C27.0318 148.32 27.7315 149.02 28.5943 149.02C29.4572 149.02 30.1568 148.32 30.1568 147.457V127.064C30.1568 126.201 29.4572 125.501 28.5943 125.501Z" fill="#4D4DFF"/>
<path d="M62.9952 135.698H61.319V127.064C61.319 126.202 60.6193 125.502 59.7565 125.502C58.8937 125.502 58.194 126.202 58.194 127.064V147.458C58.194 148.321 58.8937 149.02 59.7565 149.02C60.6193 149.02 61.319 148.321 61.319 147.458V138.823H62.9952C63.858 138.823 64.5577 138.124 64.5577 137.261C64.5577 136.398 63.858 135.698 62.9952 135.698Z" fill="#4D4DFF"/>
<path d="M56.0353 90.5312H44.4041C36.7047 90.5312 30.2178 96.83 30.2644 104.529C30.3103 112.133 36.4569 118.291 44.0569 118.355C51.7797 118.42 58.0885 112.166 58.0882 104.443C58.0878 101.065 56.8835 97.9697 54.8816 95.56L57.1704 93.2712C58.1813 92.26 57.465 90.5312 56.0353 90.5312Z" fill="#9292FF"/>
<path d="M44.176 113.106C40.8322 113.106 37.8222 111.247 36.3203 108.255C35.9331 107.484 36.2447 106.545 37.0159 106.158C37.7875 105.771 38.7263 106.082 39.1135 106.853C40.0819 108.782 42.0216 109.981 44.176 109.981C46.3306 109.981 48.2703 108.783 49.2388 106.853C49.6263 106.083 50.565 105.771 51.3363 106.158C52.1075 106.545 52.4188 107.484 52.0319 108.255C50.5297 111.247 47.5194 113.106 44.176 113.106Z" fill="#6C6CFF"/>
<path d="M50.4219 99.7528H44.4385C43.5757 99.7528 42.876 99.0531 42.876 98.1903C42.876 97.3275 43.5757 96.6278 44.4385 96.6278H47.3075L47.1041 96.3549C46.5882 95.6634 46.731 94.6843 47.4229 94.1684C48.1141 93.6528 49.0935 93.7953 49.6094 94.4871L51.6744 97.2565C52.0275 97.7303 52.0835 98.3631 51.8185 98.8912C51.5535 99.4193 51.0132 99.7528 50.4219 99.7528Z" fill="#B1B1FF"/>
<path d="M128.555 49.3887C128.156 49.3887 127.755 49.2362 127.451 48.9312L125.743 47.2237L124.035 48.9312C123.425 49.5412 122.435 49.5412 121.826 48.9312C121.215 48.3209 121.215 47.3315 121.826 46.7215L124.638 43.909C125.248 43.299 126.238 43.299 126.848 43.909L129.66 46.7215C130.27 47.3319 130.27 48.3212 129.66 48.9312C129.355 49.2362 128.955 49.3887 128.555 49.3887Z" fill="#FF6C6C"/>
<path d="M118.654 147.426C118.254 147.426 117.854 147.273 117.549 146.968L115.841 145.261L114.133 146.968C113.524 147.578 112.534 147.578 111.924 146.968C111.314 146.358 111.314 145.369 111.924 144.759L114.737 141.946C115.346 141.336 116.336 141.336 116.946 141.946L119.758 144.759C120.369 145.369 120.369 146.358 119.758 146.968C119.454 147.273 119.054 147.426 118.654 147.426Z" fill="#FF9B33"/>
<path d="M22.3653 54.3581C21.9653 54.3581 21.5656 54.2056 21.2603 53.9006L19.5528 52.1931L17.8453 53.9006C17.235 54.5106 16.2459 54.5106 15.6356 53.9006C15.0253 53.2903 15.0253 52.3009 15.6356 51.6909L18.4481 48.8784C19.0584 48.2684 20.0475 48.2684 20.6578 48.8784L23.4703 51.6909C24.0806 52.3012 24.0806 53.2906 23.4703 53.9006C23.165 54.2056 22.7653 54.3581 22.3653 54.3581Z" fill="#6C6CFF"/>
<path d="M134.088 58.5296C133.225 58.5296 132.526 57.833 132.526 56.9702V56.964C132.526 56.1012 133.225 55.4015 134.088 55.4015C134.951 55.4015 135.651 56.1012 135.651 56.964C135.651 57.8268 134.951 58.5296 134.088 58.5296Z" fill="#6C6CFF"/>
<path d="M136.828 62.8317C135.965 62.8317 135.265 62.1352 135.265 61.2724V61.2661C135.265 60.4033 135.965 59.7036 136.828 59.7036C137.691 59.7036 138.39 60.4033 138.39 61.2661C138.39 62.1289 137.691 62.8317 136.828 62.8317Z" fill="#6C6CFF"/>
<path d="M131.348 62.8317C130.485 62.8317 129.786 62.1352 129.786 61.2724V61.2661C129.786 60.4033 130.485 59.7036 131.348 59.7036C132.212 59.7036 132.911 60.4033 132.911 61.2661C132.911 62.1289 132.212 62.8317 131.348 62.8317Z" fill="#6C6CFF"/>
<path d="M18.4012 96.2966C17.5384 96.2966 16.8387 95.6 16.8387 94.7372V94.731C16.8387 93.8681 17.5384 93.1685 18.4012 93.1685C19.2641 93.1685 19.9637 93.8681 19.9637 94.731C19.9637 95.5938 19.2644 96.2966 18.4012 96.2966Z" fill="#FF6C6C"/>
<path d="M21.1409 100.599C20.2781 100.599 19.5784 99.9021 19.5784 99.0393V99.0331C19.5784 98.1703 20.2781 97.4706 21.1409 97.4706C22.0037 97.4706 22.7034 98.1703 22.7034 99.0331C22.7034 99.8959 22.0037 100.599 21.1409 100.599Z" fill="#FF6C6C"/>
<path d="M15.6619 100.599C14.7991 100.599 14.0994 99.9021 14.0994 99.0393V99.0331C14.0994 98.1703 14.7991 97.4706 15.6619 97.4706C16.5247 97.4706 17.2244 98.1703 17.2244 99.0331C17.2244 99.8959 16.5247 100.599 15.6619 100.599Z" fill="#FF6C6C"/>
<path d="M129.401 74.6003H128.118L124.399 59.7212C123.29 55.2912 119.445 52.144 114.933 51.8925C116.494 49.4771 117.404 46.604 117.404 43.5206C117.404 35.7115 111.588 29.2384 104.061 28.1965V19.189C104.061 15.7428 101.257 12.939 97.8106 12.939H44.8425C41.995 8.00997 36.671 4.68372 30.581 4.68372C21.5038 4.68372 14.1188 12.0684 14.1188 21.1459C14.1188 30.2234 21.5038 37.6081 30.581 37.6081C39.6581 37.6081 47.0431 30.2234 47.0431 21.1459C47.0431 19.3728 46.7578 17.6659 46.2369 16.0643H97.811C99.5341 16.0643 100.936 17.4662 100.936 19.1893V28.0815C92.8653 28.5959 86.4553 35.3222 86.4553 43.5206C86.4553 46.604 87.3653 49.4771 88.926 51.8925C84.4135 52.1437 80.5678 55.2909 79.4597 59.7218L79.4344 59.8231H72.2416C71.3788 59.8231 70.6791 60.5228 70.6791 61.3856V67.4721L59.5125 60.0828C59.2569 59.9134 58.9569 59.8234 58.6503 59.8234H35.2688C33.5457 59.8234 32.1438 58.4215 32.1438 56.6984V44.214C32.1438 43.3512 31.4441 42.6515 30.5813 42.6515C29.7185 42.6515 29.0188 43.3512 29.0188 44.214V56.6984C29.0188 60.1446 31.8225 62.9484 35.2688 62.9484H58.18L68.9544 70.0784C69.476 70.4237 70.0763 70.5984 70.6788 70.5981C71.186 70.5981 71.6944 70.4743 72.1582 70.2253C73.1735 69.6796 73.8041 68.625 73.8041 67.4725V62.9484H78.6532L75.7403 74.6009H54.3585C50.9122 74.6009 48.1085 77.4046 48.1085 80.8509V88.9687H44.4041C40.2485 88.9687 36.1678 90.6765 33.2081 93.654C30.2775 96.6025 28.6769 100.468 28.7019 104.539C28.7203 107.579 29.6353 110.42 31.1891 112.814C26.6697 113.058 22.8156 116.208 21.7056 120.644L17.0794 139.153C16.4819 141.542 17.0085 144.026 18.5235 145.966C20.0388 147.907 22.32 149.02 24.7825 149.02H63.5682C66.0307 149.02 68.3122 147.907 69.8272 145.966C71.3422 144.026 71.8688 141.542 71.2713 139.153L69.1982 130.859H78.365V135.383C78.365 136.536 78.9957 137.591 80.0107 138.136C80.4747 138.386 80.9828 138.509 81.49 138.509C82.0922 138.509 82.6928 138.335 83.2147 137.989L93.9891 130.859H100.057C100.92 130.859 101.62 130.16 101.62 129.297C101.62 128.434 100.92 127.734 100.057 127.734H93.5188C93.2122 127.734 92.9122 127.825 92.6563 127.994L81.49 135.383V129.297C81.49 128.434 80.7907 127.734 79.9275 127.734H68.4172L66.645 120.644C65.5372 116.217 61.6953 113.071 57.1872 112.816C58.7885 110.341 59.6503 107.46 59.65 104.443C59.65 101.319 58.6978 98.2659 56.9456 95.7047L58.2744 94.3759C59.1835 93.4668 59.4528 92.1118 58.961 90.9243C58.4688 89.7365 57.3203 88.969 56.0347 88.969H51.2325V80.8506C51.2325 79.1275 52.6344 77.7256 54.3575 77.7256H129.4C131.123 77.7256 132.525 79.1275 132.525 80.8506V124.609C132.525 126.332 131.123 127.734 129.4 127.734H107.881C107.018 127.734 106.318 128.434 106.318 129.297C106.318 130.16 107.018 130.859 107.881 130.859H129.4C132.846 130.859 135.65 128.056 135.65 124.609V80.8503C135.651 77.404 132.847 74.6003 129.401 74.6003ZM30.581 34.4828C23.2269 34.4828 17.2438 28.4997 17.2438 21.1456C17.2438 13.7915 23.2269 7.8084 30.581 7.8084C37.935 7.8084 43.9181 13.7915 43.9181 21.1456C43.9181 28.4997 37.935 34.4828 30.581 34.4828ZM63.6135 121.402L68.2397 139.911C68.6019 141.36 68.2828 142.866 67.3641 144.043C66.4453 145.22 65.0619 145.894 63.5682 145.894H24.7825C23.2888 145.894 21.9053 145.219 20.9866 144.043C20.0678 142.866 19.7488 141.36 20.111 139.911L24.7372 121.402C25.5444 118.176 28.4303 115.922 31.755 115.922H33.8372C36.5538 118.373 40.1328 119.884 44.0435 119.917C44.0885 119.917 44.1325 119.917 44.1772 119.917C48.0425 119.917 51.6931 118.506 54.5466 115.922H56.596C59.9203 115.922 62.8063 118.176 63.6135 121.402ZM56.0578 92.0943C56.0694 92.1031 56.0828 92.135 56.065 92.1659L53.7763 94.4547C53.2053 95.0256 53.1635 95.9371 53.6794 96.5581C55.5144 98.7668 56.525 101.567 56.5253 104.442C56.5253 107.757 55.2269 110.87 52.8691 113.208C50.5107 115.547 47.3791 116.825 44.0694 116.792C37.3591 116.736 31.8669 111.23 31.8266 104.52C31.8069 101.287 33.0847 98.2109 35.4244 95.8568C37.8016 93.4653 41.0744 92.0937 44.4038 92.0937H56.035L56.0578 92.0943ZM101.929 31.1712C108.739 31.1712 114.279 36.7112 114.279 43.5206C114.279 50.33 108.739 55.8703 101.929 55.8703C95.12 55.8703 89.58 50.3303 89.58 43.5206C89.58 36.7109 95.12 31.1712 101.929 31.1712ZM82.491 60.4797C83.2982 57.2528 86.1838 54.999 89.5088 54.999H91.5638C94.3094 57.4809 97.9457 58.995 101.929 58.995C105.913 58.995 109.55 57.4809 112.295 54.999H114.349C117.674 54.999 120.56 57.2528 121.367 60.4793L124.897 74.6003H78.9613L82.491 60.4797Z" fill="#0000C9"/>
</g>
<defs>
<linearGradient id="paint0_linear_33_2478" x1="16.9794" y1="122.683" x2="141.724" y2="-2.06225" gradientUnits="userSpaceOnUse">
<stop stop-color="#FFD6D6" stop-opacity="0"/>
<stop offset="0.9981" stop-color="#FFB0B0"/>
</linearGradient>
<clipPath id="clip0_33_2478">
<rect width="160" height="160" fill="white"/>
</clipPath>
</defs>
</svg>
