<svg width="612" height="561" viewBox="0 0 612 561" fill="none" xmlns="http://www.w3.org/2000/svg">
<g style="mix-blend-mode:multiply" opacity="0.3">
<path d="M612 550.889C612 556.184 474.98 560.496 305.987 560.496C136.995 560.496 0 556.184 0 550.889C0 545.593 136.995 541.281 305.987 541.281C474.98 541.281 612 545.568 612 550.889Z" fill="#363566"/>
</g>
<path d="M278.553 376.55L254.599 142.704H426.34L450.269 376.55H278.553Z" fill="#2F2B6E"/>
<path d="M299.002 545.467L258.078 145.856H423.49L464.339 545.467H470.643L429.441 142.376C429.361 141.607 429 140.894 428.428 140.373C427.856 139.852 427.113 139.56 426.34 139.552H254.598C254.161 139.551 253.728 139.642 253.328 139.82C252.928 139.998 252.57 140.259 252.279 140.586C251.975 140.926 251.746 141.326 251.607 141.76C251.468 142.195 251.422 142.654 251.472 143.107L292.673 545.543L299.002 545.467Z" fill="#2F2B6E"/>
<path d="M450.269 376.55H278.553" stroke="#2F2B6E" stroke-width="2.49" stroke-linecap="round" stroke-linejoin="round"/>
<path d="M399.94 376.55L423.894 142.704H252.153L228.224 376.55H399.94Z" fill="white"/>
<path opacity="0.5" d="M399.94 376.55L423.894 142.704H252.153L228.224 376.55H399.94Z" fill="url(#paint0_linear_100_312)"/>
<path opacity="0.5" d="M263.777 200.724L252.229 313.638H274.847L286.42 200.724H263.777Z" fill="#82C937"/>
<path opacity="0.5" d="M298.499 227.856L289.699 313.638H312.342L321.117 227.856H298.499Z" fill="#EC297B"/>
<path opacity="0.5" d="M331.909 250.272L325.403 313.638H348.047L354.527 250.272H331.909Z" fill="#26A9E0"/>
<path opacity="0.5" d="M374.523 217.24L364.664 313.638H387.282L397.166 217.24H374.523Z" fill="#F05A28"/>
<path opacity="0.5" d="M391.139 360.337L391.467 357.134H238.309L237.981 360.337H391.139Z" fill="white"/>
<path opacity="0.5" d="M392.325 352.671L392.653 349.469H239.495L239.167 352.671H392.325Z" fill="white"/>
<path opacity="0.5" d="M393.51 345.006L393.838 341.804H240.68L240.352 345.006H393.51Z" fill="white"/>
<path opacity="0.5" d="M394.695 337.34L395.023 334.113H241.865L241.537 337.34H394.695Z" fill="white"/>
<path opacity="0.5" d="M395.855 329.65L396.182 326.447H243.05L242.697 329.65H395.855Z" fill="white"/>
<path opacity="0.5" d="M397.04 321.984L397.367 318.782H244.21L243.882 321.984H397.04Z" fill="white"/>
<path opacity="0.5" d="M338.314 168.474L337.482 176.492H403.899L404.706 168.474H338.314Z" fill="#6DC246"/>
<path opacity="0.5" d="M336.347 181.056L335.515 189.075H401.932L402.739 181.056H336.347Z" fill="#6DC246"/>
<path d="M214.078 545.467L255.052 145.856H420.465L379.49 545.467H385.794L427.021 143.031C427.07 142.578 427.024 142.119 426.885 141.685C426.746 141.25 426.517 140.85 426.214 140.51C425.92 140.186 425.562 139.927 425.162 139.749C424.763 139.571 424.331 139.478 423.894 139.476H252.153C251.375 139.478 250.625 139.768 250.048 140.289C249.471 140.81 249.107 141.527 249.026 142.3L207.774 545.467H214.078Z" fill="#363566"/>
<path d="M228.224 376.55H399.94" stroke="#363566" stroke-width="2.49" stroke-linecap="round" stroke-linejoin="round"/>
<path d="M365.244 31.8825V119.329H463.23" stroke="#363566" stroke-width="0.5" stroke-miterlimit="10"/>
<path d="M228.551 76.7405V128.079H149.829" stroke="#6DC246" stroke-width="0.5" stroke-miterlimit="10"/>
<path d="M239.109 102.46C253.304 96.6264 260.082 80.3906 254.249 66.196C248.416 52.0013 232.18 45.223 217.985 51.0563C203.791 56.8895 197.012 73.1253 202.846 87.3199C208.679 101.515 224.915 108.293 239.109 102.46Z" fill="#6DC246"/>
<path d="M240.73 78.0516V75.5301C240.73 75.4286 240.71 75.3281 240.67 75.2347C240.631 75.1412 240.573 75.0567 240.5 74.9861C240.427 74.9155 240.341 74.8603 240.246 74.8238C240.151 74.7873 240.05 74.7703 239.949 74.7737H237.225C237.002 73.8845 236.645 73.0343 236.166 72.2521L238.083 70.3105C238.154 70.2422 238.212 70.1601 238.251 70.0691C238.29 69.978 238.31 69.8801 238.31 69.781C238.31 69.682 238.29 69.584 238.251 69.493C238.212 69.4019 238.154 69.3198 238.083 69.2515L236.217 67.3856C236.149 67.3139 236.066 67.2568 235.975 67.2178C235.884 67.1788 235.786 67.1586 235.687 67.1586C235.588 67.1586 235.49 67.1788 235.399 67.2178C235.308 67.2568 235.226 67.3139 235.158 67.3856L233.216 69.3019C232.433 68.8257 231.583 68.4687 230.695 68.2429V65.5197C230.695 65.4182 230.674 65.3177 230.635 65.2242C230.595 65.1308 230.537 65.0462 230.464 64.9756C230.391 64.9051 230.305 64.8499 230.21 64.8134C230.115 64.7769 230.014 64.7598 229.913 64.7632H227.391C227.291 64.7597 227.191 64.7768 227.098 64.8136C227.004 64.8504 226.92 64.906 226.849 64.9769C226.778 65.0479 226.722 65.1327 226.685 65.226C226.649 65.3194 226.631 65.4194 226.635 65.5197V68.2429C225.747 68.4708 224.898 68.8276 224.113 69.3019L222.197 67.3856C222.127 67.3132 222.042 67.2556 221.949 67.2163C221.856 67.177 221.756 67.1567 221.655 67.1567C221.554 67.1567 221.454 67.177 221.361 67.2163C221.268 67.2556 221.183 67.3132 221.113 67.3856L219.247 69.2515C219.114 69.3958 219.04 69.5848 219.04 69.781C219.04 69.9772 219.114 70.1662 219.247 70.3105L221.189 72.2521C220.692 73.0281 220.326 73.8798 220.104 74.7737H217.23C217.129 74.7701 217.029 74.7873 216.936 74.8241C216.843 74.8608 216.758 74.9164 216.687 74.9874C216.616 75.0583 216.56 75.1431 216.524 75.2365C216.487 75.3299 216.47 75.4298 216.473 75.5301V78.0516C216.47 78.1519 216.487 78.2519 216.524 78.3453C216.56 78.4386 216.616 78.5234 216.687 78.5944C216.758 78.6653 216.843 78.7209 216.936 78.7577C217.029 78.7945 217.129 78.8116 217.23 78.8081H219.953C220.175 79.702 220.541 80.5537 221.037 81.3296L219.096 83.246C218.961 83.3944 218.886 83.5877 218.886 83.7881C218.886 83.9885 218.961 84.1818 219.096 84.3302L220.962 86.1962C221.032 86.2686 221.116 86.3262 221.209 86.3655C221.303 86.4048 221.403 86.4251 221.504 86.4251C221.605 86.4251 221.705 86.4048 221.798 86.3655C221.891 86.3262 221.975 86.2686 222.046 86.1962L223.962 84.2546C224.74 84.7468 225.591 85.1127 226.484 85.3389V88.0621C226.48 88.1624 226.497 88.2624 226.534 88.3557C226.571 88.4491 226.626 88.5339 226.697 88.6049C226.768 88.6758 226.853 88.7314 226.947 88.7682C227.04 88.8049 227.14 88.8221 227.24 88.8186H229.762C229.863 88.822 229.964 88.8049 230.059 88.7684C230.154 88.7319 230.24 88.6767 230.313 88.6061C230.386 88.5355 230.444 88.451 230.483 88.3575C230.523 88.2641 230.543 88.1636 230.543 88.0621V85.3389C231.437 85.1152 232.288 84.7491 233.065 84.2546L235.006 86.1962C235.075 86.2679 235.157 86.325 235.248 86.364C235.339 86.403 235.437 86.4231 235.536 86.4231C235.635 86.4231 235.733 86.403 235.824 86.364C235.915 86.325 235.997 86.2679 236.066 86.1962L237.931 84.3302C238.004 84.2597 238.061 84.1755 238.101 84.0824C238.14 83.9893 238.16 83.8892 238.16 83.7881C238.16 83.687 238.14 83.587 238.101 83.4939C238.061 83.4008 238.004 83.3165 237.931 83.246L236.015 81.3296C236.503 80.5524 236.861 79.7007 237.074 78.8081H239.923C240.027 78.815 240.131 78.8006 240.228 78.7657C240.326 78.7308 240.416 78.6761 240.491 78.6052C240.567 78.5342 240.627 78.4485 240.668 78.3533C240.709 78.258 240.731 78.1554 240.73 78.0516ZM229.636 81.38C228.627 81.6159 227.569 81.5167 226.621 81.0973C225.674 80.6779 224.889 79.9613 224.386 79.0559C223.882 78.1505 223.687 77.1057 223.831 76.0796C223.974 75.0536 224.448 74.1023 225.181 73.3697C225.913 72.6372 226.865 72.1632 227.891 72.0198C228.917 71.8763 229.961 72.0711 230.867 72.5747C231.772 73.0782 232.489 73.8631 232.908 74.8104C233.328 75.7577 233.427 76.8159 233.191 77.8247C232.996 78.6904 232.557 79.4823 231.927 80.1076C231.298 80.7329 230.503 81.1656 229.636 81.3548V81.38Z" fill="white"/>
<path d="M391.968 36.3064C394.419 21.1569 384.125 6.88884 368.976 4.43787C353.826 1.98691 339.558 12.2811 337.107 27.4306C334.656 42.5801 344.95 56.8481 360.1 59.299C375.249 61.75 389.517 51.4558 391.968 36.3064Z" fill="#363566"/>
<path d="M376.086 26.4864L373.716 27.6463C374.337 28.9089 374.657 30.2987 374.649 31.706C374.63 33.9779 373.791 36.1667 372.287 37.8697C370.783 39.5727 368.715 40.6755 366.463 40.9753C364.211 41.2751 361.926 40.7516 360.029 39.5013C358.132 38.251 356.75 36.3579 356.137 34.17C355.525 31.9821 355.723 29.6465 356.695 27.5929C357.667 25.5392 359.347 23.9055 361.428 22.9922C363.508 22.0788 365.848 21.9473 368.018 22.6217C370.187 23.2961 372.041 24.7311 373.237 26.6629L374.371 26.0073L374.75 24.0657C372.997 21.7891 370.495 20.2068 367.687 19.5995C364.879 18.9923 361.947 19.3994 359.411 20.7485C356.874 22.0977 354.898 24.3017 353.832 26.9696C352.766 29.6374 352.68 32.5966 353.588 35.3221C354.497 38.0475 356.341 40.3631 358.795 41.8578C361.248 43.3526 364.152 43.9299 366.99 43.4874C369.829 43.045 372.419 41.6112 374.301 39.4406C376.183 37.2701 377.235 34.503 377.271 31.6303C377.265 29.8487 376.86 28.091 376.086 26.4864Z" fill="white"/>
<path d="M369.479 29.8148C369.774 30.4467 369.929 31.1348 369.933 31.832C369.933 32.7746 369.654 33.696 369.13 34.4797C368.606 35.2634 367.862 35.8742 366.991 36.2349C366.12 36.5956 365.162 36.69 364.238 36.5061C363.313 36.3223 362.464 35.8684 361.797 35.2019C361.131 34.5354 360.677 33.6862 360.493 32.7618C360.309 31.8373 360.404 30.8791 360.764 30.0083C361.125 29.1375 361.736 28.3932 362.52 27.8695C363.303 27.3459 364.225 27.0663 365.167 27.0663C365.961 27.0614 366.742 27.2577 367.439 27.6369C368.136 28.0162 368.725 28.566 369.151 29.2349L371.421 27.8985C370.465 26.4045 369.003 25.3055 367.302 24.8036C365.601 24.3016 363.776 24.4304 362.163 25.1662C360.549 25.902 359.256 27.1954 358.519 28.8087C357.783 30.422 357.654 32.2468 358.156 33.9478C358.657 35.6487 359.756 37.1115 361.249 38.0672C362.743 39.023 364.532 39.4076 366.286 39.1502C368.041 38.8929 369.644 38.0109 370.8 36.6665C371.956 35.322 372.589 33.6054 372.581 31.832C372.571 30.7324 372.321 29.6482 371.849 28.6549L369.479 29.8148Z" fill="white"/>
<path d="M365.244 31.8825L365.092 31.6555L366.908 30.5713C366.646 30.2131 366.277 29.9474 365.854 29.8125C365.432 29.6777 364.977 29.6806 364.556 29.8209C364.135 29.9612 363.77 30.2316 363.513 30.593C363.256 30.9545 363.12 31.3884 363.125 31.832C363.125 32.3871 363.346 32.9194 363.738 33.3119C364.131 33.7044 364.663 33.9249 365.218 33.9249C365.776 33.9249 366.311 33.7052 366.707 33.3135C367.104 32.9217 367.33 32.3894 367.336 31.832C367.336 31.5346 367.267 31.2413 367.135 30.9747L365.244 31.8825Z" fill="white"/>
<path d="M381.129 26.083C381.171 26.0585 381.206 26.0236 381.23 25.9815C381.254 25.9395 381.267 25.8919 381.267 25.8434C381.267 25.795 381.254 25.7473 381.23 25.7053C381.206 25.6633 381.171 25.6283 381.129 25.6039L379.137 24.8222L379.566 22.7293C379.569 22.6826 379.56 22.6358 379.541 22.5934C379.521 22.5509 379.491 22.5141 379.453 22.4864C379.415 22.4587 379.371 22.4411 379.325 22.435C379.278 22.429 379.231 22.4348 379.188 22.452L375.909 24.2423L374.951 26.5368L365.193 31.8825L365.697 32.8154L375.456 27.4446L377.977 27.8732L381.129 26.083Z" fill="white"/>
<path d="M316.199 195.883C315.771 195.883 340.835 193.185 340.835 193.185L339.044 181.762L312.468 184.485L316.199 195.883Z" fill="#ECA0A4"/>
<g style="mix-blend-mode:multiply" opacity="0.5">
<path d="M316.199 195.883C315.771 195.883 340.835 193.185 340.835 193.185L339.044 181.762L312.468 184.485L316.199 195.883Z" fill="#CE808B"/>
</g>
<path d="M322.806 199.211C322.442 199.551 322.005 199.803 321.529 199.947C321.052 200.091 320.549 200.124 320.058 200.043C319.204 199.993 318.358 199.85 317.536 199.614L316.906 199.438C316.981 199.667 316.981 199.915 316.906 200.144C316.806 200.401 316.657 200.635 316.467 200.835C316.276 201.034 316.048 201.193 315.796 201.304C315.045 201.573 314.237 201.642 313.451 201.506C312.95 201.432 312.454 201.331 311.964 201.203C311.477 201.087 310.997 200.944 310.526 200.774L309.619 200.421C309.802 200.738 309.913 201.091 309.946 201.455C310.034 202.06 309.956 202.677 309.721 203.241C309.485 203.805 309.101 204.294 308.61 204.658C308.119 204.982 307.553 205.175 306.966 205.219C306.379 205.263 305.79 205.157 305.256 204.91C304.874 204.736 304.531 204.487 304.248 204.178C304.3 204.402 304.3 204.635 304.248 204.859C304.101 205.201 303.873 205.502 303.582 205.735C303.292 205.968 302.949 206.126 302.583 206.196C301.605 206.291 300.62 206.117 299.734 205.691L298.221 205.111C292.724 202.968 286.572 200.547 283.773 195.605C283.152 194.44 282.293 193.417 281.251 192.605C279.578 191.442 277.613 190.769 275.578 190.663C270.989 190.234 265.845 191.344 262.088 189.554C263.802 185.797 260.65 172.079 260.903 172.13C267.4 172.998 273.941 173.495 280.495 173.618C285.311 173.819 290.077 174.071 294.086 174.651C296.203 174.907 298.289 175.372 300.314 176.038C304.84 178.016 308.896 180.93 312.216 184.586L317.763 190.033C319.605 191.656 321.293 193.445 322.806 195.378C322.906 195.56 323.016 195.737 323.134 195.908C323.417 196.428 323.537 197.021 323.479 197.61C323.42 198.199 323.186 198.757 322.806 199.211Z" fill="#ECA0A4"/>
<g style="mix-blend-mode:multiply" opacity="0.5">
<path d="M297.918 205.137C292.421 202.993 286.269 200.573 283.47 195.631C282.849 194.465 281.99 193.442 280.948 192.63C280.948 192.378 281.125 192.151 281.251 191.899C282.613 191.899 283.773 190.991 285.084 190.764C285.562 190.708 286.047 190.75 286.509 190.886C286.971 191.022 287.401 191.249 287.773 191.555C288.145 191.862 288.451 192.24 288.674 192.667C288.896 193.094 289.03 193.562 289.068 194.042C289.53 193.977 290.001 194.019 290.444 194.165C290.888 194.31 291.292 194.556 291.626 194.882C291.959 195.208 292.214 195.607 292.369 196.047C292.525 196.487 292.577 196.957 292.522 197.421C293.63 197.705 294.654 198.252 295.505 199.016C296.357 199.779 297.012 200.737 297.414 201.808C297.781 202.878 297.952 204.006 297.918 205.137Z" fill="#CE808B"/>
</g>
<g style="mix-blend-mode:multiply" opacity="0.5">
<path d="M322.68 195.933C320.7 196.271 318.672 196.21 316.715 195.756C314.758 195.301 312.912 194.461 311.283 193.285C307.214 190.646 303.889 187.009 301.625 182.72C299.44 183.939 296.919 184.417 294.439 184.082C293.623 183.831 292.87 183.409 292.229 182.846C291.587 182.283 291.072 181.591 290.717 180.814C290.363 180.038 290.176 179.195 290.17 178.342C290.164 177.488 290.338 176.643 290.682 175.862C291.658 175.408 292.66 175.012 293.683 174.677C295.799 174.932 297.886 175.397 299.911 176.063C304.436 178.042 308.492 180.955 311.812 184.611L317.36 190.058C319.201 191.681 320.89 193.47 322.403 195.404C322.486 195.585 322.579 195.761 322.68 195.933Z" fill="#CE808B"/>
</g>
<g style="mix-blend-mode:multiply" opacity="0.5">
<path d="M280.092 173.643C279.058 177.501 277.041 184.939 275.048 190.688C270.459 190.26 265.315 191.369 261.558 189.579C263.273 185.822 260.121 172.105 260.373 172.155C266.912 173.028 273.496 173.525 280.092 173.643Z" fill="#CE808B"/>
</g>
<path d="M334.582 185.191L329.841 189.276C328.533 190.492 327.056 191.512 325.454 192.302C324.913 192.543 324.346 192.72 323.765 192.832C321.081 193.068 318.4 192.345 316.2 190.789C313.292 189.042 310.643 186.894 308.333 184.41C306.462 182.49 304.429 180.735 302.256 179.165C301.22 178.823 300.123 178.709 299.039 178.831C297.956 178.953 296.911 179.308 295.977 179.871C294.652 180.688 293.064 180.968 291.539 180.653C290.949 180.431 290.439 180.035 290.077 179.518C289.875 179.216 289.722 178.884 289.623 178.535C288.312 173.718 295.044 170.97 298.751 170.516C306.316 169.709 312.745 177.274 320.36 177.072L325.404 176.744L335.49 175.912C335.944 175.862 332.691 182.594 334.582 185.191Z" fill="#ECA0A4"/>
<g style="mix-blend-mode:multiply" opacity="0.5">
<path d="M334.582 185.191L329.841 189.276C328.533 190.492 327.055 191.512 325.454 192.302C325.151 186.175 325.277 179.972 325.454 176.744L335.54 175.912C335.943 175.862 332.69 182.594 334.582 185.191Z" fill="#CE808B"/>
</g>
<path d="M291.06 204.506C290.562 204.891 289.983 205.156 289.367 205.283C288.751 205.41 288.114 205.394 287.505 205.238C286.945 205.046 286.442 204.716 286.042 204.279C285.529 203.781 285.2 203.123 285.109 202.413C285.062 202.054 285.12 201.689 285.277 201.362C285.433 201.035 285.682 200.761 285.992 200.573C286.833 200.774 287.715 200.703 288.513 200.371C289.27 200.119 290.001 199.816 290.758 199.64C291.042 199.567 291.338 199.551 291.628 199.595C291.918 199.638 292.197 199.739 292.447 199.892C292.755 200.165 292.952 200.542 293.002 200.951C293.031 201.664 292.866 202.371 292.524 202.998C292.182 203.624 291.676 204.146 291.06 204.506Z" fill="#ECA0A4"/>
<g style="mix-blend-mode:multiply" opacity="0.5">
<path d="M290.606 199.564C290.429 200.548 289.984 201.464 289.32 202.212C288.578 202.909 287.726 203.479 286.799 203.901C286.542 204.052 286.272 204.179 285.992 204.279C285.478 203.781 285.149 203.123 285.059 202.413C285.011 202.054 285.069 201.689 285.226 201.362C285.383 201.035 285.632 200.761 285.942 200.573C286.782 200.774 287.665 200.703 288.463 200.371C289.119 200.043 289.85 199.867 290.606 199.564Z" fill="#CE808B"/>
</g>
<path d="M287.555 201.506C287 201.924 286.36 202.216 285.681 202.359C285.001 202.503 284.298 202.496 283.621 202.338C283.061 202.131 282.554 201.804 282.134 201.38L281.932 201.203C281.374 200.633 281.012 199.9 280.898 199.11C280.85 198.715 280.918 198.314 281.092 197.957C281.267 197.599 281.541 197.299 281.881 197.093C282.773 197.292 283.703 197.222 284.554 196.891C285.336 196.639 286.092 196.311 286.899 196.11H287.177C287.811 195.957 288.48 196.057 289.043 196.387C289.387 196.691 289.603 197.115 289.648 197.572C289.69 198.356 289.518 199.137 289.149 199.83C288.78 200.523 288.229 201.103 287.555 201.506Z" fill="#ECA0A4"/>
<g style="mix-blend-mode:multiply" opacity="0.5">
<path d="M286.899 196.11C286.718 196.801 286.391 197.445 285.941 198.001C284.964 199.418 283.657 200.578 282.134 201.38L281.932 201.203C281.374 200.633 281.012 199.9 280.898 199.11C280.85 198.715 280.918 198.314 281.092 197.957C281.267 197.599 281.541 197.299 281.881 197.093C282.773 197.292 283.703 197.222 284.554 196.891C285.311 196.639 286.092 196.311 286.899 196.11Z" fill="#CE808B"/>
</g>
<path d="M286.95 193.008C286.927 193.964 286.632 194.893 286.101 195.688C285.57 196.482 284.824 197.11 283.949 197.496C283.247 197.93 282.456 198.199 281.634 198.282C280.813 198.365 279.984 198.26 279.209 197.976C278.471 197.622 277.831 197.094 277.343 196.437C276.764 195.72 276.428 194.837 276.385 193.916C276.385 192.983 276.814 191.394 277.696 191.117C278.716 191.632 279.861 191.851 280.999 191.747C282.053 191.46 283.122 191.233 284.202 191.067C284.582 191.002 284.971 191.018 285.345 191.113C285.718 191.209 286.068 191.382 286.37 191.621C286.719 192.002 286.924 192.492 286.95 193.008Z" fill="#ECA0A4"/>
<path d="M112.384 301.61H65.5345V284.943C65.5345 282.268 66.5971 279.703 68.4886 277.811C70.3801 275.92 72.9456 274.857 75.6206 274.857H102.349C105.024 274.857 107.589 275.92 109.481 277.811C111.372 279.703 112.435 282.268 112.435 284.943L112.384 301.61ZM72.7461 294.399H105.173V284.943C105.173 284.187 104.873 283.463 104.338 282.928C103.804 282.394 103.079 282.094 102.324 282.094H75.5954C75.2203 282.09 74.8483 282.162 74.501 282.304C74.1538 282.446 73.8384 282.655 73.5731 282.921C73.3079 283.186 73.0981 283.501 72.9561 283.849C72.8141 284.196 72.7427 284.568 72.7461 284.943V294.399Z" fill="#3B2314"/>
<path d="M145.013 289.784H32.9062C28.8119 289.784 25.4929 293.103 25.4929 297.198V364.472C25.4929 368.566 28.8119 371.885 32.9062 371.885H145.013C149.108 371.885 152.427 368.566 152.427 364.472V297.198C152.427 293.103 149.108 289.784 145.013 289.784Z" fill="#3B2314"/>
<path d="M481.99 125.86L459.044 150.344L430.828 180.4L427.525 183.931C425.285 186.324 422.261 187.836 419.002 188.192L350.19 195.757L342.777 196.563L330.875 197.9L326.815 171.172L338.213 169.81L339.373 169.684L410.858 161.186L442.604 127.348L458.036 110.932L461.818 106.873C464.336 104.254 467.784 102.733 471.416 102.638C475.047 102.542 478.57 103.881 481.222 106.364C483.874 108.847 485.441 112.274 485.585 115.904C485.729 119.534 484.437 123.074 481.99 125.759V125.86Z" fill="#6DC246"/>
<g style="mix-blend-mode:multiply" opacity="0.5">
<path d="M459.095 150.319L430.904 180.4C433.809 162.538 437.741 144.858 442.68 127.448L458.112 111.008L459.095 150.319Z" fill="#6DC246"/>
</g>
<path d="M459.549 30.1174C458.411 29.2318 457.021 28.7302 455.58 28.6849C454.139 28.6395 452.721 29.0529 451.53 29.8653C450.363 30.7063 449.411 31.812 448.754 33.0919C448.096 34.3718 447.751 35.7893 447.748 37.2281C447.743 40.1124 448.623 42.9287 450.269 45.297C449.206 46.0231 448.339 47.0006 447.744 48.1425C447.15 49.2845 446.846 50.5557 446.861 51.8431C446.876 53.1305 447.209 54.3942 447.83 55.5221C448.451 56.65 449.341 57.607 450.421 58.3081C449.863 59.6507 449.644 61.1097 449.782 62.5569C449.92 64.0041 450.412 65.3951 451.214 66.6078C452.016 67.8205 453.103 68.8176 454.38 69.5116C455.658 70.2056 457.086 70.5752 458.54 70.5879C457.002 57.0726 455.413 43.0781 459.549 30.1174Z" fill="#231F20"/>
<path d="M454.556 509.435C454.556 509.435 455.161 521.059 445.151 525.85C445.151 525.85 454.152 534.272 464.188 534.272C469.236 534.524 474.279 533.707 478.989 531.876V510.847L454.556 509.435Z" fill="#ECA0A4"/>
<g style="mix-blend-mode:multiply" opacity="0.5">
<path d="M454.556 509.435C454.556 509.435 455.161 521.059 445.151 525.85C445.151 525.85 454.152 534.272 464.188 534.272C469.236 534.524 474.279 533.707 478.989 531.876V510.847L454.556 509.435Z" fill="#CE808B"/>
</g>
<path d="M438.368 523.152C440.656 522.717 442.883 522.006 444.999 521.034C445.332 520.868 445.713 520.831 446.071 520.929C446.429 521.026 446.738 521.252 446.941 521.563C454.858 532.86 472.156 531.473 477.023 529.128C478.193 528.54 479.429 528.091 480.704 527.791C480.879 527.772 481.056 527.792 481.222 527.849C481.388 527.906 481.539 528 481.665 528.123C481.791 528.246 481.887 528.396 481.948 528.561C482.008 528.726 482.031 528.902 482.015 529.077V547.308C482.036 547.592 481.945 547.872 481.761 548.089C481.577 548.306 481.315 548.442 481.032 548.468H415.346C415.063 548.442 414.801 548.306 414.617 548.089C414.433 547.872 414.342 547.592 414.363 547.308V540.046C414.363 531.876 422.608 526.152 438.368 523.152Z" fill="#6DC246"/>
<g style="mix-blend-mode:multiply" opacity="0.5">
<path d="M438.368 523.152C440.656 522.717 442.883 522.006 444.999 521.034C445.332 520.868 445.713 520.831 446.071 520.929C446.429 521.026 446.738 521.252 446.941 521.563C454.858 532.86 472.156 531.473 477.023 529.128C478.193 528.54 479.429 528.091 480.704 527.791C480.879 527.772 481.056 527.792 481.222 527.849C481.388 527.906 481.539 528 481.665 528.123C481.791 528.246 481.887 528.396 481.948 528.561C482.008 528.726 482.031 528.902 482.015 529.077V547.308C482.036 547.592 481.945 547.872 481.761 548.089C481.577 548.306 481.315 548.442 481.032 548.468H415.346C415.063 548.442 414.801 548.306 414.617 548.089C414.433 547.872 414.342 547.592 414.363 547.308V540.046C414.363 531.876 422.608 526.152 438.368 523.152Z" fill="#6DC246"/>
</g>
<path d="M414.135 549.88H482.545C483.004 549.88 483.377 549.507 483.377 549.048V542.492C483.377 542.032 483.004 541.66 482.545 541.66H414.135C413.676 541.66 413.303 542.032 413.303 542.492V549.048C413.303 549.507 413.676 549.88 414.135 549.88Z" fill="#C3D9E4"/>
<path d="M125.194 71.2435V111.79H100.281V70.9409L125.194 71.2435Z" fill="#ECA0A4"/>
<g style="mix-blend-mode:multiply" opacity="0.5">
<path d="M125.194 71.2687V96.9631C112.183 95.198 104.442 90.6341 100.256 87.1544V70.9662L125.194 71.2687Z" fill="#CE808B"/>
</g>
<path d="M103.963 509.435C103.963 509.435 103.383 521.059 113.393 525.85C113.393 525.85 104.366 534.272 94.3557 534.272C89.3083 534.524 84.2646 533.707 79.5543 531.876V510.847L103.963 509.435Z" fill="#ECA0A4"/>
<g style="mix-blend-mode:multiply" opacity="0.5">
<path d="M103.963 509.435C103.963 509.435 103.383 521.059 113.393 525.85C113.393 525.85 104.366 534.272 94.3557 534.272C89.3083 534.524 84.2646 533.707 79.5543 531.876V510.847L103.963 509.435Z" fill="#CE808B"/>
</g>
<path d="M120.176 523.152C117.88 522.717 115.645 522.006 113.519 521.034C113.186 520.874 112.807 520.84 112.45 520.937C112.094 521.034 111.784 521.256 111.578 521.563C103.686 532.86 86.4886 531.473 81.5212 529.128C80.3506 528.54 79.115 528.091 77.8398 527.791C77.6651 527.772 77.4882 527.792 77.322 527.849C77.1558 527.906 77.0045 528 76.879 528.123C76.7535 528.246 76.6569 528.396 76.5963 528.561C76.5357 528.726 76.5126 528.902 76.5286 529.077V547.308C76.5076 547.592 76.5989 547.872 76.7829 548.089C76.9669 548.306 77.2287 548.442 77.512 548.468H143.072C143.355 548.442 143.617 548.306 143.801 548.089C143.985 547.872 144.076 547.592 144.055 547.308V540.046C144.106 531.876 135.911 526.152 120.176 523.152Z" fill="#363566"/>
<g style="mix-blend-mode:multiply" opacity="0.5">
<path d="M120.176 523.152C117.88 522.717 115.645 522.006 113.519 521.034C113.186 520.874 112.807 520.84 112.45 520.937C112.094 521.034 111.784 521.256 111.578 521.563C103.686 532.86 86.4886 531.473 81.5212 529.128C80.3506 528.54 79.115 528.091 77.8398 527.791C77.6651 527.772 77.4882 527.792 77.322 527.849C77.1558 527.906 77.0045 528 76.879 528.123C76.7535 528.246 76.6569 528.396 76.5963 528.561C76.5357 528.726 76.5126 528.902 76.5286 529.077V547.308C76.5076 547.592 76.5989 547.872 76.7829 548.089C76.9669 548.306 77.2287 548.442 77.512 548.468H143.072C143.355 548.442 143.617 548.306 143.801 548.089C143.985 547.872 144.076 547.592 144.055 547.308V540.046C144.106 531.876 135.911 526.152 120.176 523.152Z" fill="#363566"/>
</g>
<path d="M144.383 541.685H75.9738C75.5142 541.685 75.1417 542.058 75.1417 542.517V549.073C75.1417 549.533 75.5142 549.905 75.9738 549.905H144.383C144.842 549.905 145.215 549.533 145.215 549.073V542.517C145.215 542.058 144.842 541.685 144.383 541.685Z" fill="#C3D9E4"/>
<path d="M144.105 509.435C144.105 509.435 143.525 521.059 153.536 525.85C153.536 525.85 144.509 534.272 134.498 534.272C129.451 534.524 124.407 533.707 119.697 531.876V510.847L144.105 509.435Z" fill="#ECA0A4"/>
<path d="M160.42 523.152C158.123 522.717 155.888 522.006 153.763 521.034C153.434 520.87 153.057 520.834 152.703 520.931C152.35 521.029 152.044 521.254 151.847 521.563C143.929 532.86 126.631 531.473 121.765 529.128C120.594 528.54 119.358 528.091 118.083 527.791C117.909 527.772 117.732 527.792 117.565 527.849C117.399 527.906 117.248 528 117.122 528.123C116.997 528.246 116.9 528.396 116.84 528.561C116.779 528.726 116.756 528.902 116.772 529.077V547.308C116.751 547.592 116.842 547.872 117.026 548.089C117.21 548.306 117.472 548.442 117.755 548.468H183.315C183.599 548.442 183.86 548.306 184.044 548.089C184.228 547.872 184.32 547.592 184.299 547.308V540.046C184.45 531.876 176.154 526.152 160.42 523.152Z" fill="#363566"/>
<path d="M184.626 541.685H116.217C115.758 541.685 115.385 542.058 115.385 542.517V549.073C115.385 549.533 115.758 549.905 116.217 549.905H184.626C185.086 549.905 185.458 549.533 185.458 549.073V542.517C185.458 542.058 185.086 541.685 184.626 541.685Z" fill="white"/>
<path d="M96.5242 264.519L79.6552 184.511L107.543 121.145C108.214 119.576 108.559 117.889 108.558 116.183C108.557 114.478 108.21 112.79 107.539 111.223C106.867 109.655 105.884 108.24 104.65 107.063C103.415 105.887 101.955 104.972 100.357 104.376C97.1054 103.009 93.4507 102.954 90.1597 104.224C86.8687 105.493 84.1974 107.988 82.7062 111.185L53.3305 178.156C52.2743 180.531 52.0006 183.18 52.5488 185.721L70.1995 269.486L96.5242 264.519Z" fill="#363566"/>
<g style="mix-blend-mode:multiply" opacity="0.5">
<path d="M96.5242 264.519L79.6552 184.511L107.543 121.145C108.214 119.576 108.559 117.889 108.558 116.183C108.557 114.478 108.21 112.79 107.539 111.223C106.867 109.655 105.884 108.24 104.65 107.063C103.415 105.887 101.955 104.972 100.357 104.376C97.1054 103.009 93.4507 102.954 90.1597 104.224C86.8687 105.493 84.1974 107.988 82.7062 111.185L53.3305 178.156C52.2743 180.531 52.0006 183.18 52.5488 185.721L70.1995 269.486L96.5242 264.519Z" fill="#363566"/>
</g>
<path d="M150.888 259.753V269.839C150.884 271.697 150.672 273.55 150.258 275.361C149.781 277.501 149.026 279.569 148.014 281.514V520.529H116.797V303.678C116.797 302.401 116.29 301.176 115.387 300.272C114.483 299.369 113.258 298.862 111.981 298.862C110.704 298.862 109.479 299.369 108.576 300.272C107.672 301.176 107.165 302.401 107.165 303.678V520.529H76.0241V281.438C74.153 277.831 73.1758 273.827 73.1748 269.763V259.677L150.888 259.753Z" fill="#363566"/>
<g style="mix-blend-mode:multiply" opacity="0.5">
<path d="M150.888 259.753V269.839C150.883 271.697 150.672 273.55 150.258 275.361C120.655 275.361 87.6231 269.562 73.0991 266.637V259.829L150.888 259.753Z" fill="#363566"/>
</g>
<path d="M153.133 140.182V262.552H70.83V140.182C70.83 116.959 86.6651 97.9717 106.005 97.9717H117.957C137.297 97.9717 153.133 116.959 153.133 140.182Z" fill="#363566"/>
<path d="M142.92 41.8677V64.7884C142.887 71.4657 140.22 77.8601 135.498 82.5817C130.776 87.3033 124.382 89.9706 117.705 90.0037H115.788C109.111 89.9706 102.717 87.3033 97.9951 82.5817C93.2734 77.8601 90.6062 71.4657 90.5731 64.7884V41.8677C90.5794 38.7351 91.1694 35.6311 92.3129 32.7146C94.1723 27.9784 97.4116 23.9101 101.611 21.0371C105.81 18.1641 110.776 16.619 115.864 16.602H117.78C124.284 16.596 130.539 19.1033 135.238 23.6C139.936 28.0968 142.716 34.2352 142.996 40.733C142.895 41.0104 142.92 41.4895 142.92 41.8677Z" fill="#ECA0A4"/>
<g style="mix-blend-mode:multiply" opacity="0.5">
<path d="M142.87 40.733C118.991 49.9114 96.726 35.8665 92.1873 32.7146C94.0466 27.9784 97.286 23.9101 101.485 21.0371C105.685 18.1641 110.65 16.619 115.738 16.602H117.655C124.158 16.596 130.413 19.1033 135.112 23.6C139.811 28.0968 142.59 34.2352 142.87 40.733Z" fill="#CE808B"/>
</g>
<path d="M494.799 509.435C494.799 509.435 495.405 521.059 485.394 525.85C485.394 525.85 494.421 534.272 504.432 534.272C509.479 534.524 514.523 533.707 519.233 531.876V510.847L494.799 509.435Z" fill="#ECA0A4"/>
<path d="M478.611 523.152C480.907 522.713 483.141 522.002 485.268 521.034C485.596 520.87 485.974 520.834 486.328 520.931C486.681 521.029 486.986 521.254 487.184 521.563C495.102 532.86 512.4 531.473 517.266 529.128C518.437 528.54 519.672 528.091 520.948 527.791C521.122 527.772 521.299 527.792 521.465 527.849C521.632 527.906 521.783 528 521.908 528.123C522.034 528.246 522.131 528.396 522.191 528.561C522.252 528.726 522.275 528.902 522.259 529.077V547.308C522.28 547.592 522.189 547.872 522.005 548.089C521.821 548.306 521.559 548.442 521.275 548.468H455.59C455.306 548.442 455.044 548.306 454.86 548.089C454.677 547.872 454.585 547.592 454.606 547.308V540.046C454.606 531.876 462.852 526.152 478.611 523.152Z" fill="#6DC246"/>
<path d="M454.404 549.88H522.813C523.273 549.88 523.646 549.507 523.646 549.048V542.492C523.646 542.032 523.273 541.66 522.813 541.66H454.404C453.945 541.66 453.572 542.032 453.572 542.492V549.048C453.572 549.507 453.945 549.88 454.404 549.88Z" fill="white"/>
<path d="M525.688 259.753V269.839C525.695 271.586 525.509 273.328 525.134 275.033C524.677 277.291 523.905 279.472 522.839 281.514V520.101H491.623V303.678C491.623 302.401 491.115 301.176 490.212 300.272C489.309 299.369 488.084 298.862 486.807 298.862C485.529 298.862 484.304 299.369 483.401 300.272C482.498 301.176 481.99 302.401 481.99 303.678V520.101H450.774V281.438C449.762 279.494 449.007 277.425 448.53 275.286C448.116 273.474 447.904 271.622 447.899 269.763V259.677L525.688 259.753Z" fill="#6DC246"/>
<g style="mix-blend-mode:multiply" opacity="0.5">
<path d="M525.688 259.753V269.839C525.695 271.586 525.509 273.328 525.134 275.033C497.624 275.21 460.86 267.998 447.899 265.275V259.829L525.688 259.753Z" fill="#6DC246"/>
</g>
<path d="M532.849 290.062C533.404 292.583 532.32 294.525 530.857 294.903C530.35 295.013 529.826 295.013 529.319 294.903C528.957 295.997 528.178 296.903 527.15 297.425C526.667 297.728 526.121 297.919 525.554 297.985C524.987 298.05 524.412 297.988 523.872 297.803L523.494 298.005L523.293 298.131C521.704 301.283 518.678 300.476 516.737 299.517H516.51C515.804 299.517 515.123 299.77 514.442 299.845C513.365 299.924 512.286 299.736 511.3 299.296C510.315 298.856 509.453 298.178 508.794 297.324C508.133 296.474 507.648 295.501 507.367 294.462C507.085 293.424 507.013 292.339 507.155 291.272C507.537 289.826 507.648 288.321 507.482 286.834C507.259 286.185 506.972 285.56 506.625 284.968L506.474 284.615C505.062 281.388 506.625 277.631 508.718 274.832C509.964 272.946 511.71 271.444 513.761 270.495C514.323 270.282 514.907 270.13 515.501 270.041L516.409 265.905L518.073 258.341L534.614 260.862L531.815 272.26L531.336 274.252C531.336 274.252 537.766 278.034 532.849 290.062Z" fill="#ECA0A4"/>
<g style="mix-blend-mode:multiply" opacity="0.5">
<path d="M509.122 280.682C508.366 282.654 507.817 284.699 507.483 286.784C507.259 286.135 506.972 285.51 506.625 284.918C506.928 284.212 507.205 283.556 507.432 282.976C508.34 280.782 509.122 280.682 509.122 280.682Z" fill="#CE808B"/>
</g>
<g style="mix-blend-mode:multiply" opacity="0.5">
<path d="M534.69 260.787L531.891 272.184C526.633 270.387 521.488 268.273 516.485 265.855L518.149 258.29L534.69 260.787Z" fill="#CE808B"/>
</g>
<path d="M527.957 140.182V260.762H450.269L449.21 140.182C449.21 123.515 457.38 109.041 469.13 102.183C470.29 101.502 468.021 100.897 469.256 100.367C472.94 98.7968 476.901 97.9822 480.906 97.9717H492.832C494.592 97.9647 496.348 98.1251 498.077 98.4508C514.896 101.527 527.957 119.178 527.957 140.182Z" fill="white"/>
<g style="mix-blend-mode:multiply" opacity="0.5">
<path d="M527.957 140.182V260.762H489.554V97.9717H492.706C494.466 97.9647 496.222 98.1251 497.951 98.4508C514.896 101.527 527.957 119.178 527.957 140.182Z" fill="#C3D9E4"/>
</g>
<path d="M469.181 100.367V262.552H445.655V140.182C445.655 123.792 453.547 109.495 465.02 102.536C465.195 102.403 465.381 102.285 465.575 102.183C466.738 101.503 467.942 100.896 469.181 100.367Z" fill="#6DC246"/>
<g style="mix-blend-mode:multiply" opacity="0.5">
<path d="M469.181 101.678V215.198L452.161 163.658L461.188 132.416L454.959 117.009L466.584 102.384L469.181 101.678Z" fill="#6DC246"/>
</g>
<path d="M527.957 140.182V262.552H498.002V98.4508C499.784 98.7721 501.532 99.2618 503.221 99.9133C504.205 100.292 505.188 100.695 506.146 101.174C516.964 106.545 525.083 118.22 527.327 132.29C527.741 134.9 527.952 137.539 527.957 140.182Z" fill="#6DC246"/>
<g style="mix-blend-mode:multiply" opacity="0.5">
<path d="M527.958 140.182V252.289L526.52 262.552H508.365L522.637 189.428L502.465 132.365L515.476 112.344C515.854 114.942 527.958 137.509 527.958 140.182Z" fill="#6DC246"/>
</g>
<path d="M550.475 190.814L539.002 257.055L538.169 261.72L536.959 268.856L514.265 263.813L515.93 254.08L516.207 252.592L527.125 189.554L508.315 123.364C505.793 116.631 504.255 104.023 510.836 103.494C522.268 110.616 531.108 121.223 536.051 133.752L549.718 183.149C550.662 185.588 550.923 188.238 550.475 190.814Z" fill="#6DC246"/>
<g style="mix-blend-mode:multiply" opacity="0.5">
<path d="M520.897 151.428L498.002 217.82V98.4508C499.784 98.7721 501.532 99.2618 503.221 99.9133C504.205 100.292 505.188 100.695 506.146 101.174L519.989 117.488L509.727 135.82L520.897 151.428Z" fill="#6DC246"/>
</g>
<path d="M496.514 70.9409V99.0056C496.514 102.349 495.186 105.556 492.821 107.921C490.457 110.285 487.25 111.613 483.907 111.613H477.905C477.089 111.617 476.279 111.459 475.524 111.148C474.768 110.838 474.082 110.382 473.503 109.805C472.924 109.229 472.465 108.544 472.152 107.79C471.838 107.036 471.677 106.227 471.677 105.41V71.2687L496.514 70.9409Z" fill="#ECA0A4"/>
<g style="mix-blend-mode:multiply" opacity="0.5">
<path d="M496.514 70.9409V97.1648C487.936 97.6971 479.361 96.0671 471.576 92.4244V71.2687L496.514 70.9409Z" fill="#CE808B"/>
</g>
<path d="M505.718 42.2712V65.1919C505.718 71.8794 503.061 78.293 498.332 83.0218C493.604 87.7506 487.19 90.4071 480.503 90.4071H478.586C471.899 90.4071 465.485 87.7506 460.756 83.0218C456.027 78.293 453.371 71.8794 453.371 65.1919V42.2712C453.371 41.893 453.371 41.4895 453.371 41.1113C453.423 40.046 453.541 38.985 453.724 37.9342C454.759 32.0807 457.819 26.7774 462.368 22.9517C466.918 19.1259 472.667 17.0211 478.611 17.0055H480.528C485.614 17.0013 490.583 18.5355 494.782 21.4066C498.98 24.2776 502.212 28.3514 504.054 33.0928C504.542 34.3114 504.93 35.5679 505.213 36.8499C505.574 38.6339 505.744 40.4513 505.718 42.2712Z" fill="#ECA0A4"/>
<g style="mix-blend-mode:multiply" opacity="0.5">
<path d="M505.718 42.2712V45.297C501.185 46.7052 496.522 47.6514 491.799 48.1211C469.912 50.4662 458.742 43.2294 453.648 38.035C454.683 32.1816 457.743 26.8783 462.293 23.0525C466.842 19.2267 472.592 17.122 478.536 17.1063H480.452C485.539 17.1022 490.507 18.6364 494.706 21.5074C498.905 24.3785 502.137 28.4522 503.978 33.1937C504.467 34.4122 504.855 35.6688 505.138 36.9508C505.517 38.699 505.712 40.4823 505.718 42.2712Z" fill="#CE808B"/>
</g>
<path d="M525.083 42.6242C524.81 41.0169 524.145 39.5017 523.147 38.213C522.148 36.9242 520.847 35.9018 519.359 35.2361C519.849 33.9679 520.073 32.6126 520.018 31.2542C519.963 29.8958 519.63 28.5632 519.039 27.3388C518.448 26.1144 517.612 25.0244 516.583 24.1361C515.553 23.2478 514.353 22.5802 513.055 22.1746C513.322 20.4072 513.113 18.6007 512.452 16.9402C511.791 15.2796 510.7 13.8246 509.292 12.724C507.884 11.6235 506.208 10.917 504.437 10.6768C502.666 10.4367 500.863 10.6715 499.212 11.3573C499.122 10.2624 498.774 9.20446 498.195 8.27068C497.616 7.3369 496.824 6.55397 495.884 5.98639C493.983 4.86201 491.836 4.22128 489.63 4.12045C488.013 3.84441 486.355 3.92719 484.773 4.36292C483.191 4.79865 481.725 5.57669 480.477 6.64198C479.063 5.62048 477.458 4.89491 475.757 4.5087C474.056 4.1225 472.294 4.08365 470.578 4.39443C468.861 4.70522 467.225 5.35927 465.768 6.3174C464.31 7.27552 463.061 8.518 462.095 9.97041C460.231 9.53462 458.281 9.63858 456.473 10.2702C454.665 10.9018 453.075 12.0349 451.887 13.537C450.7 15.0392 449.964 16.8484 449.767 18.753C449.57 20.6577 449.919 22.5791 450.773 24.2927H450.647C449.667 24.9778 448.982 26.0083 448.729 27.1774C448.477 28.3465 448.676 29.5678 449.286 30.5965C449.819 31.4948 450.551 32.2594 451.425 32.8319C452.299 33.4044 453.292 33.7696 454.329 33.8997C456.598 33.8997 458.389 32.0842 460.254 33.7232C461.087 34.4544 461.515 35.8917 462.398 36.7238C463.418 37.6507 464.608 38.3701 465.903 38.8419C469.735 40.3044 474.955 40.7835 477.552 37.0264C478.051 38.0622 478.755 38.9856 479.622 39.7405C480.489 40.4954 481.501 41.0659 482.595 41.4174C483.69 41.7689 484.844 41.894 485.989 41.785C487.133 41.676 488.244 41.3352 489.252 40.7835L489.857 51.8278C490.617 50.6381 491.803 49.7844 493.172 49.4421C494.542 49.0998 495.99 49.2948 497.22 49.987C498.414 50.7495 499.337 51.8692 499.857 53.1866C500.378 54.504 500.47 55.9521 500.12 57.3247C499.721 58.6803 498.991 59.9154 497.997 60.919C497.002 61.9225 495.773 62.663 494.421 63.0738C492.681 63.6285 498.027 73.639 498.683 74.5215C500.801 77.2448 502.591 80.321 506.6 80.0185C509.131 79.7142 511.49 78.5791 513.307 76.7909C514.355 75.9666 515.193 74.9067 515.754 73.6974C516.315 72.4882 516.582 71.1636 516.535 69.8315C518.333 69.3375 519.944 68.3218 521.165 66.9125C522.385 65.5033 523.161 63.7638 523.394 61.9139C523.778 58.1791 522.831 54.4285 520.721 51.3235C521.657 51.219 522.546 50.8542 523.286 50.2703C524.026 49.6865 524.587 48.907 524.906 48.0203C525.518 46.2823 525.579 44.3984 525.083 42.6242Z" fill="#231F20"/>
<path d="M107.089 7.70099C96.2717 8.98697 82.6302 14.1561 78.7975 25.3517C78.3135 26.3829 78.0881 27.5166 78.1408 28.6545C78.1935 29.7925 78.5228 30.9004 79.1001 31.8825C79.2305 32.0296 79.3739 32.1646 79.5287 32.2859C78.1452 33.1796 77.0229 34.4237 76.276 35.8917C75.2695 38.0584 74.7284 40.412 74.6874 42.8007C74.2587 50.3653 76.7551 57.2995 79.7305 64.1832C81.7438 68.9485 84.9162 73.135 88.9593 76.3622C90.1856 77.4822 91.5813 78.4013 93.0946 79.0855C100.256 76.4127 107.266 69.6297 107.467 62.6703C106.448 63.3018 105.244 63.5684 104.053 63.4264C102.862 63.2843 101.754 62.7422 100.911 61.8886C99.7892 60.5026 99.2354 58.7423 99.3618 56.9635C99.4882 55.1847 100.285 53.5203 101.592 52.3068C102.602 51.5573 103.817 51.134 105.074 51.0935C106.331 51.0529 107.571 51.3971 108.627 52.0799C109.258 52.7859 109.711 53.3407 109.711 53.3407V38.741C114.153 39.1733 118.635 38.7626 122.924 37.5307C127.472 36.1795 131.914 34.4938 136.213 32.4876C139.387 31.4534 142.237 29.6112 144.483 27.142C136.54 13.6518 122.899 5.70899 107.089 7.70099Z" fill="#3B2314"/>
<path d="M469.181 100.367V210.205L457.178 154.151L464.365 130.424L457.758 118.094L465.02 102.536C465.196 102.403 465.381 102.285 465.575 102.183C466.738 101.503 467.942 100.896 469.181 100.367Z" fill="#6DC246"/>
<path d="M504.684 129.264L513.08 143.687L497.951 206.07V98.4508C499.733 98.7721 501.481 99.2618 503.171 99.9133L513.257 116.606L504.684 129.264Z" fill="#6DC246"/>
<g style="mix-blend-mode:multiply" opacity="0.5">
<path d="M312.544 196.286L316.452 199.741L316.729 200.144C316.804 199.915 316.804 199.667 316.729 199.438L317.385 199.615L317.032 199.11L313.048 195.605C313.003 195.566 312.951 195.535 312.895 195.515C312.838 195.496 312.778 195.488 312.719 195.491C312.659 195.495 312.601 195.51 312.547 195.536C312.493 195.562 312.445 195.598 312.405 195.643C312.365 195.688 312.335 195.74 312.315 195.796C312.295 195.853 312.287 195.913 312.291 195.972C312.294 196.032 312.309 196.091 312.336 196.144C312.362 196.198 312.398 196.246 312.443 196.286H312.544Z" fill="#CE808B"/>
<path d="M306.139 197.976L309.114 200.774L309.745 201.48C309.712 201.116 309.6 200.763 309.417 200.447L310.325 200.8L309.77 200.144L306.744 197.345C306.706 197.302 306.66 197.268 306.608 197.244C306.555 197.221 306.499 197.209 306.442 197.209C306.384 197.209 306.328 197.221 306.276 197.244C306.224 197.268 306.177 197.302 306.139 197.345C306.096 197.385 306.061 197.434 306.037 197.488C306.013 197.543 306.001 197.601 306.001 197.66C306.001 197.72 306.013 197.778 306.037 197.832C306.061 197.887 306.096 197.935 306.139 197.976Z" fill="#CE808B"/>
<path d="M301.272 201.077L303.794 204.481L304.071 204.885C304.124 204.661 304.124 204.428 304.071 204.204C304.355 204.513 304.698 204.761 305.08 204.935L304.449 203.952L301.928 200.573C301.902 200.51 301.862 200.455 301.812 200.41C301.762 200.365 301.702 200.331 301.637 200.312C301.572 200.293 301.504 200.289 301.437 200.3C301.371 200.31 301.307 200.336 301.252 200.374C301.196 200.413 301.15 200.463 301.116 200.521C301.082 200.58 301.062 200.645 301.057 200.713C301.052 200.78 301.061 200.848 301.086 200.911C301.11 200.974 301.148 201.03 301.197 201.077H301.272Z" fill="#CE808B"/>
</g>
<g style="mix-blend-mode:multiply" opacity="0.5">
<path d="M153.132 146.536V180.93C138.306 162.397 116.671 134.433 113.191 124.7C107.77 109.697 120.403 106.696 120.403 106.696L153.132 146.536Z" fill="#363566"/>
</g>
<path d="M274.468 170.365L271.241 197.799L259.49 196.412L258.305 196.261H257.725L250.488 195.404L176.734 186.629C173.48 186.229 170.476 184.683 168.261 182.266L116.595 125.734C115.37 124.394 114.421 122.827 113.801 121.12C113.182 119.414 112.905 117.602 112.986 115.789C113.066 113.976 113.504 112.196 114.272 110.551C115.041 108.907 116.126 107.43 117.465 106.205C118.805 104.979 120.372 104.03 122.079 103.411C123.785 102.791 125.597 102.514 127.41 102.595C129.223 102.676 131.003 103.113 132.648 103.881C134.292 104.65 135.769 105.735 136.994 107.074L185.206 159.774L258.33 168.448L261.104 168.776L262.289 168.928L274.468 170.365Z" fill="#363566"/>
<g style="mix-blend-mode:multiply" opacity="0.5">
<path d="M261.054 168.776L257.726 196.185L250.489 195.328L258.28 168.423L261.054 168.776Z" fill="#363566"/>
</g>
<path d="M95.6161 101.124L98.7681 93.1808L120.983 94.2147L130.464 100.67L95.6161 101.124Z" fill="#363566"/>
<path d="M264.987 192.68C264.987 193.069 264.872 193.45 264.656 193.773C264.44 194.096 264.133 194.349 263.773 194.497C263.414 194.646 263.018 194.685 262.637 194.609C262.255 194.533 261.905 194.346 261.63 194.071C261.355 193.796 261.168 193.446 261.092 193.064C261.016 192.682 261.055 192.287 261.204 191.928C261.352 191.568 261.604 191.261 261.928 191.045C262.251 190.829 262.632 190.714 263.021 190.714C263.542 190.714 264.043 190.921 264.411 191.29C264.78 191.658 264.987 192.159 264.987 192.68Z" fill="#007BB6"/>
<g style="mix-blend-mode:multiply" opacity="0.5">
<path d="M350.24 195.857L342.827 196.639L338.263 169.911L339.423 169.76L350.24 195.857Z" fill="#6DC246"/>
</g>
<g style="mix-blend-mode:multiply" opacity="0.5">
<path d="M539.001 257.08L538.195 261.72L516.03 254.155L516.283 252.667L539.001 257.08Z" fill="#6DC246"/>
</g>
<g style="mix-blend-mode:multiply" opacity="0.5">
<path d="M535.724 263.989C535.717 264.366 535.563 264.725 535.294 264.989C535.025 265.253 534.664 265.401 534.287 265.401C533.912 265.401 533.553 265.252 533.288 264.988C533.023 264.723 532.875 264.364 532.875 263.989C532.875 263.612 533.023 263.25 533.287 262.982C533.551 262.713 533.91 262.558 534.287 262.552C534.666 262.558 535.028 262.712 535.296 262.98C535.564 263.248 535.717 263.61 535.724 263.989Z" fill="#6DC246"/>
</g>
<g style="mix-blend-mode:multiply" opacity="0.5">
<path d="M337.557 192.605C337.562 192.911 337.476 193.212 337.308 193.469C337.141 193.725 336.901 193.926 336.619 194.046C336.337 194.165 336.026 194.198 335.725 194.139C335.425 194.081 335.148 193.934 334.932 193.717C334.715 193.501 334.568 193.224 334.509 192.924C334.451 192.623 334.483 192.312 334.603 192.03C334.723 191.747 334.924 191.508 335.18 191.34C335.437 191.173 335.738 191.087 336.044 191.092C336.243 191.092 336.44 191.131 336.623 191.207C336.807 191.283 336.973 191.394 337.114 191.535C337.254 191.675 337.366 191.842 337.442 192.026C337.518 192.209 337.557 192.406 337.557 192.605Z" fill="#6DC246"/>
</g>
<defs>
<linearGradient id="paint0_linear_100_312" x1="326.059" y1="380.66" x2="326.059" y2="142.88" gradientUnits="userSpaceOnUse">
<stop stop-color="#4A8BE0"/>
<stop offset="0.16" stop-color="#77A8E8" stop-opacity="0.75"/>
<stop offset="0.35" stop-color="#A7C7F0" stop-opacity="0.49"/>
<stop offset="0.52" stop-color="#CDDFF6" stop-opacity="0.28"/>
<stop offset="0.68" stop-color="#E8F0FB" stop-opacity="0.13"/>
<stop offset="0.8" stop-color="#F9FBFE" stop-opacity="0.03"/>
<stop offset="0.89" stop-color="white" stop-opacity="0"/>
</linearGradient>
</defs>
</svg>
